<svg width="83" height="83" viewBox="0 0 83 83" fill="none" xmlns="http://www.w3.org/2000/svg">
<path d="M40.7208 19.9232C40.3954 20.4103 40.2216 20.9829 40.2216 21.5687C40.2216 22.3542 40.5337 23.1076 41.0891 23.663C41.6446 24.2185 42.3979 24.5305 43.1834 24.5305C43.7692 24.5305 44.3419 24.3568 44.8289 24.0314C45.316 23.7059 45.6956 23.2434 45.9198 22.7022C46.144 22.161 46.2026 21.5654 46.0883 20.9909C45.974 20.4164 45.692 19.8886 45.2777 19.4744C44.8635 19.0602 44.3358 18.7781 43.7613 18.6638C43.1867 18.5496 42.5912 18.6082 42.05 18.8324C41.5088 19.0566 41.0462 19.4362 40.7208 19.9232Z" fill="#0E1526"/>
<path d="M17.7132 49.7533L16.5536 48.5936C16.246 48.9012 16.0732 49.3183 16.0732 49.7533C16.0732 50.1882 16.246 50.6054 16.5536 50.9129L17.7132 49.7533ZM18.0047 49.4618L19.1644 50.6214H19.1644L18.0047 49.4618ZM23.6365 41.4607L25.1034 42.1941C25.4061 41.5886 25.3057 40.8594 24.8507 40.3583C24.3957 39.8571 23.6796 39.687 23.0478 39.93L23.6365 41.4607ZM23.6365 58.0459V59.6859C24.2049 59.6859 24.7328 59.3916 25.0316 58.9081C25.3304 58.4246 25.3576 57.8208 25.1034 57.3125L23.6365 58.0459ZM18.0047 50.0448L16.845 51.2044H16.845L18.0047 50.0448ZM9.42059 16.5846L8.26088 15.425V15.425L9.42059 16.5846ZM41.8553 10.8826L42.1607 9.27131H42.1607L41.8553 10.8826ZM37.8524 35.5359V37.1759C37.8637 37.1759 37.875 37.1758 37.8863 37.1756L37.8524 35.5359ZM9.42059 42.5896L9.02985 44.1823H9.02985L9.42059 42.5896ZM8.289 40.8238L9.84671 40.3108H9.84671L8.289 40.8238ZM62.3272 22.7979L63.7107 23.6785L63.7107 23.6784L62.3272 22.7979ZM61.6659 23.8368L60.2824 22.9562L60.2824 22.9562L61.6659 23.8368ZM40.9787 35.4713L41.0126 37.111L40.9787 35.4713ZM59.7132 19.5785L60.7806 18.3334L60.7806 18.3334L59.7132 19.5785ZM62.1603 21.6761L61.093 22.9213L61.093 22.9213L62.1603 21.6761ZM47.9315 12.6165L48.5073 11.0809H48.5073L47.9315 12.6165ZM33.3354 18.2676C33.8014 17.4909 33.5495 16.4835 32.7729 16.0175C31.9962 15.5515 30.9888 15.8034 30.5228 16.5801L33.3354 18.2676ZM30.5228 30.1142C30.9888 30.8909 31.9962 31.1427 32.7729 30.6767C33.5495 30.2107 33.8014 29.2033 33.3354 28.4266L30.5228 30.1142ZM25.1034 19.3419C25.5084 18.5318 25.18 17.5467 24.3699 17.1416C23.5598 16.7366 22.5747 17.0649 22.1696 17.8751L25.1034 19.3419ZM22.1696 28.8192C22.5747 29.6293 23.5598 29.9577 24.3699 29.5526C25.18 29.1475 25.5084 28.1624 25.1034 27.3523L22.1696 28.8192ZM36.6677 47.0403L35.9626 48.521C36.4838 48.7692 37.0971 48.7251 37.5774 48.4048L36.6677 47.0403ZM28.3751 43.0914L26.9688 42.2476C26.731 42.6441 26.6715 43.1225 26.805 43.5651C26.9385 44.0077 27.2526 44.3733 27.67 44.5721L28.3751 43.0914ZM38.2455 8.21158L36.6086 8.31187V8.31188L38.2455 8.21158ZM14.2322 4.18299L14.5018 5.80068V5.80067L14.2322 4.18299ZM12.9746 4.3926L12.705 2.77491C12.0325 2.88699 11.4995 3.40343 11.3662 4.07204C11.2329 4.74066 11.5272 5.42198 12.1054 5.78331L12.9746 4.3926ZM17.7132 49.7533L18.8729 50.9129L19.1644 50.6214L18.0047 49.4618L16.8451 48.3021L16.5536 48.5936L17.7132 49.7533ZM23.3306 42.0726L24.7974 42.806L25.1034 42.1941L23.6365 41.4607L22.1696 40.7272L21.8637 41.3391L23.3306 42.0726ZM23.6365 58.0459L25.1034 57.3125L24.7974 56.7006L23.3306 57.434L21.8637 58.1674L22.1696 58.7793L23.6365 58.0459ZM18.0047 50.0448L19.1644 48.8851L18.8729 48.5936L17.7132 49.7533L16.5536 50.9129L16.845 51.2044L18.0047 50.0448ZM23.6365 58.0459V56.4059C20.3268 56.4059 15.3393 55.4553 11.2313 52.6619C7.21067 49.9278 3.95266 45.3873 3.95266 37.9067H2.31266H0.672661C0.672661 46.5374 4.5226 52.0665 9.38691 55.3742C14.1638 58.6225 19.8383 59.6859 23.6365 59.6859V58.0459ZM2.31266 37.9067L3.95266 37.9065C3.95216 33.1351 4.00017 24.325 10.5803 17.7442L9.42059 16.5846L8.26088 15.425C0.624009 23.0626 0.67217 33.2035 0.672661 37.9068L2.31266 37.9067ZM9.42059 16.5846L10.5803 17.7442C14.8023 13.5219 20.5103 11.8034 26.2737 11.3592C32.0336 10.9153 37.6723 11.7591 41.5499 12.494L41.8553 10.8826L42.1607 9.27131C38.1931 8.51943 32.2166 7.61151 26.0217 8.08894C19.8301 8.5661 13.2434 10.442 8.26088 15.425L9.42059 16.5846ZM37.8524 35.5359V33.8959H16.7676V35.5359V37.1759H37.8524V35.5359ZM23.6365 41.4607L23.0478 39.93C19.9635 41.1162 14.4368 42.1315 9.81132 40.9968L9.42059 42.5896L9.02985 44.1823C14.5002 45.5243 20.7334 44.3343 24.2252 42.9913L23.6365 41.4607ZM9.42059 42.5896L9.81133 40.9968C7.26013 40.3709 5.09425 39.1225 3.67722 36.997L2.31266 37.9067L0.948098 38.8164C2.93814 41.8014 5.91451 43.4181 9.02985 44.1823L9.42059 42.5896ZM8.289 40.8238L6.7313 41.3368C7.01275 42.1914 7.52055 42.9976 8.25218 43.7404L9.42059 42.5896L10.589 41.4387C10.1608 41.004 9.94908 40.6217 9.84671 40.3108L8.289 40.8238ZM62.3272 22.7979L60.9436 21.9172L60.2824 22.9562L61.6659 23.8368L63.0494 24.7174L63.7107 23.6785L62.3272 22.7979ZM40.9787 35.4713L40.9448 33.8317L37.8185 33.8963L37.8524 35.5359L37.8863 37.1756L41.0126 37.111L40.9787 35.4713ZM59.7132 19.5785L58.6459 20.8237L61.093 22.9213L62.1603 21.6761L63.2276 20.431L60.7806 18.3334L59.7132 19.5785ZM47.9315 12.6165L47.3556 14.1521C51.4801 15.6988 55.3014 17.9569 58.6459 20.8237L59.7132 19.5785L60.7806 18.3334C57.1449 15.217 52.9909 12.7623 48.5073 11.0809L47.9315 12.6165ZM61.6659 23.8368L60.2824 22.9562C56.0615 29.5877 48.8041 33.6693 40.9448 33.8317L40.9787 35.4713L41.0126 37.111C49.9689 36.9259 58.2393 32.2746 63.0494 24.7174L61.6659 23.8368ZM62.3272 22.7979L63.7107 23.6784C64.3802 22.6266 64.1743 21.2424 63.2276 20.431L62.1603 21.6761L61.093 22.9213C60.8003 22.6704 60.7366 22.2425 60.9436 21.9173L62.3272 22.7979ZM41.8553 10.8826L41.5499 12.494C43.5176 12.8668 45.45 13.4375 47.3556 14.1521L47.9315 12.6165L48.5073 11.0809C46.4578 10.3124 44.3432 9.68492 42.1607 9.27131L41.8553 10.8826ZM16.7676 35.5359V33.8959C14.6203 33.8959 11.9219 34.2857 9.8509 35.2729C8.814 35.7672 7.78528 36.4821 7.13316 37.5206C6.43536 38.6319 6.27433 39.9492 6.7313 41.3368L8.289 40.8238L9.84671 40.3108C9.67728 39.7964 9.76225 39.5017 9.91095 39.2648C10.1053 38.9553 10.5236 38.5859 11.2623 38.2337C12.7426 37.528 14.9099 37.1759 16.7676 37.1759V35.5359ZM23.3306 57.434L24.7974 56.7006C23.3519 53.8096 21.4499 51.1706 19.1644 48.8851L18.0047 50.0448L16.845 51.2044C18.8813 53.2406 20.5759 55.5918 21.8637 58.1674L23.3306 57.434ZM18.0047 49.4618L19.1644 50.6214C21.4499 48.3359 23.3519 45.6969 24.7974 42.806L23.3306 42.0726L21.8637 41.3391C20.5759 43.9147 18.8813 46.2659 16.8451 48.3021L18.0047 49.4618ZM31.9291 17.4238L30.5228 16.5801C28.0237 20.7453 28.0237 25.9489 30.5228 30.1142L31.9291 29.2704L33.3354 28.4266C31.4595 25.3001 31.4595 21.3941 33.3354 18.2676L31.9291 17.4238ZM23.6365 18.6085L22.1696 17.8751C20.4473 21.3198 20.4473 25.3744 22.1696 28.8192L23.6365 28.0858L25.1034 27.3523C23.8427 24.831 23.8427 21.8633 25.1034 19.3419L23.6365 18.6085ZM39.037 35.1937L37.7319 36.1868C38.4268 37.1 39.1482 38.714 39.0918 40.4466C39.0389 42.071 38.3016 43.98 35.758 45.6757L36.6677 47.0403L37.5774 48.4048C40.9571 46.1517 42.2809 43.2891 42.3701 40.5534C42.4557 37.9258 41.4001 35.5909 40.3422 34.2006L39.037 35.1937ZM36.6677 47.0403L37.3728 45.5596L29.0802 41.6107L28.3751 43.0914L27.67 44.5721L35.9626 48.521L36.6677 47.0403ZM28.3751 43.0914L29.7814 43.9352L34.52 36.0375L33.1138 35.1937L31.7075 34.3499L26.9688 42.2476L28.3751 43.0914ZM36.6677 10.3159L37.4564 11.7538C38.6889 11.0779 39.9916 9.89272 39.8824 8.11129L38.2455 8.21158L36.6086 8.31188C36.6056 8.26375 36.6351 8.26554 36.5657 8.35639C36.4788 8.47023 36.278 8.65917 35.8791 8.87794L36.6677 10.3159ZM14.2322 4.18299L13.9626 2.5653L12.705 2.77491L12.9746 4.3926L13.2442 6.01028L14.5018 5.80068L14.2322 4.18299ZM12.9746 4.3926L12.1054 5.78331L21.5826 11.7066L22.4518 10.3159L23.321 8.92517L13.8438 3.00188L12.9746 4.3926ZM38.2455 8.21158L39.8824 8.11129C39.7142 5.36567 38.3407 3.45651 36.2667 2.30472C34.3101 1.2182 31.8066 0.840216 29.2766 0.785473C24.2099 0.675844 18.1351 1.86989 13.9626 2.5653L14.2322 4.18299L14.5018 5.80067C18.8645 5.07357 24.5317 3.96357 29.2056 4.06471C31.5459 4.11534 33.4123 4.47144 34.6742 5.17223C35.8187 5.80776 36.5122 6.73916 36.6086 8.31187L38.2455 8.21158Z" fill="#0E1526"/>
<path d="M55.8972 66.8635L48.2105 50.3516C47.5782 48.9934 48.1667 47.3798 49.5249 46.7475C50.8831 46.1152 52.4967 46.7037 53.1289 48.0619L59.8343 62.466M59.8355 62.4649L57.7639 58.0148C57.1015 56.592 57.718 54.9015 59.1409 54.2391C60.5638 53.5768 62.2542 54.1933 62.9166 55.6161L64.8791 59.832M64.9895 60.0674L63.1905 56.2029C62.5583 54.8447 63.1467 53.2311 64.5049 52.5988C65.8631 51.9665 67.4767 52.555 68.109 53.9132L69.799 57.5435M69.471 56.8404L68.6533 55.0839C68.021 53.7257 68.6095 52.1121 69.9677 51.4798C71.3258 50.8475 72.9394 51.436 73.5717 52.7942L79.6229 65.793C81.5498 69.9322 79.7564 74.8498 75.6171 76.7768L68.8512 79.9264C66.2425 81.1409 63.1756 80.81 60.8859 79.0671L47.1017 68.5745C47.0102 68.5049 46.9617 68.3925 46.9737 68.2781C47.266 65.4972 50.2758 63.8919 52.7481 65.1983L55.8988 66.8632" stroke="#0E1526" stroke-width="3.28" stroke-linecap="round" stroke-linejoin="round"/>
</svg>
