<svg width="86" height="84" viewBox="0 0 86 84" fill="none" xmlns="http://www.w3.org/2000/svg">
<path d="M2.03922 43.2553L43.0392 8.11243L84.0392 43.2553" stroke="#0E1526" stroke-width="3.34694" stroke-linecap="round" stroke-linejoin="round"/>
<path d="M14.551 32.9355V74.7426C14.551 78.6099 17.6861 81.745 21.5534 81.745H56.1602H63.6098C67.4772 81.745 70.6123 78.6099 70.6123 74.7426V32.3777" stroke="#0E1526" stroke-width="3.34694"/>
<path d="M28.1789 46.9702C28.4994 39.2821 34.8253 33.2144 42.5201 33.2144V33.2144C50.0995 33.2144 56.3727 39.1076 56.8457 46.6723L56.873 47.1092C57.0991 50.7251 55.9621 54.2945 53.6862 57.1134L42.5816 70.8674L31.344 56.9486C29.1492 54.2301 28.019 50.8056 28.1645 47.3148L28.1789 46.9702Z" stroke="#0E1526" stroke-width="3.34694" stroke-linejoin="round"/>
<circle cx="42.5816" cy="47.8572" r="5.43878" stroke="#0E1526" stroke-width="3.34694"/>
<path d="M53.0408 16.7079V2.25525H62.2449V24.4287" stroke="#0E1526" stroke-width="3.34694" stroke-linecap="round" stroke-linejoin="round"/>
</svg>
