<svg width="78" height="82" viewBox="0 0 78 82" fill="none" xmlns="http://www.w3.org/2000/svg">
<path d="M24.3005 43.1321L17.4347 25.5863L14.1368 26.1231C12.7005 26.357 11.3127 26.8265 10.0295 27.5129L9.59126 27.7473C7.5759 28.8253 5.92505 30.4762 4.84706 32.4915C4.0055 34.0649 3.42973 35.7665 3.14304 37.5276L3.055 38.0684C2.80987 39.5742 2.74242 41.1037 2.85404 42.6252L3.03688 45.1177C3.20501 47.4095 3.64432 49.6733 4.34561 51.8617L4.40634 52.0512C5.41432 55.1966 6.92266 58.159 8.87333 60.8244L9.4929 61.671C12.6496 65.9843 16.4513 69.7861 20.7647 72.9427L21.6112 73.5623C24.2767 75.513 27.2391 77.0213 30.3845 78.0293L30.5739 78.09C32.7623 78.7913 35.0261 79.2306 37.318 79.3988L39.8104 79.5816C41.332 79.6932 42.8614 79.6258 44.3672 79.3806L44.908 79.2926C46.6691 79.0059 48.3708 78.4301 49.9441 77.5886C51.9595 76.5106 53.6103 74.8597 54.6883 72.8444L54.9227 72.4061C55.6091 71.1229 56.0787 69.7351 56.3125 68.2988L56.8494 65.0009L39.0492 57.8808L35.1843 66.0937C35.06 66.358 34.7942 66.5266 34.5022 66.5266C24.093 66.5266 15.6547 58.0883 15.6547 47.6792C15.6547 47.3871 15.8234 47.1214 16.0876 46.997L24.3005 43.1321Z" stroke="#0E1526" stroke-width="3.28" stroke-linecap="round" stroke-linejoin="round"/>
<path d="M55.8097 1.64001V1.46627e-05H55.8097L55.8097 1.64001ZM75.4904 17.3109H77.1304V17.3109L75.4904 17.3109ZM55.8097 32.9818L55.8097 34.6218H55.8097V32.9818ZM50.2267 32.3412L50.6021 30.7447C50.193 30.6485 49.7625 30.7131 49.3996 30.925L50.2267 32.3412ZM38.3165 39.2972L36.9746 38.3545C36.5314 38.9854 36.5875 39.8398 37.1093 40.4073C37.6312 40.9748 38.4779 41.1022 39.1436 40.7134L38.3165 39.2972ZM44.6818 30.2367L46.0237 31.1794C46.2921 30.7974 46.3849 30.3192 46.279 29.8645C46.173 29.4098 45.8783 29.0219 45.4687 28.7978L44.6818 30.2367ZM36.13 17.3109L34.49 17.3109V17.3109H36.13ZM55.8097 1.64001V3.28001C66.141 3.28001 73.8502 9.89067 73.8504 17.3109L75.4904 17.3109L77.1304 17.3109C77.1302 7.42152 67.2161 1.46627e-05 55.8097 1.46627e-05V1.64001ZM75.4904 17.3109H73.8504C73.8504 24.7312 66.1412 31.3418 55.8097 31.3418V32.9818V34.6218C67.2161 34.6218 77.1304 27.2004 77.1304 17.3109H75.4904ZM55.8097 32.9818L55.8097 31.3418C53.9967 31.3418 52.2491 31.1321 50.6021 30.7447L50.2267 32.3412L49.8512 33.9376C51.7443 34.3828 53.7439 34.6218 55.8097 34.6218L55.8097 32.9818ZM50.2267 32.3412L49.3996 30.925L37.4894 37.8811L38.3165 39.2972L39.1436 40.7134L51.0538 33.7573L50.2267 32.3412ZM38.3165 39.2972L39.6585 40.24L46.0237 31.1794L44.6818 30.2367L43.3398 29.2939L36.9746 38.3545L38.3165 39.2972ZM44.6818 30.2367L45.4687 28.7978C40.6916 26.185 37.77 21.9343 37.77 17.3109H36.13H34.49C34.49 23.4195 38.3433 28.6392 43.8948 31.6755L44.6818 30.2367ZM36.13 17.3109L37.77 17.3109C37.7701 9.89068 45.4786 3.28014 55.8097 3.28001L55.8097 1.64001L55.8097 1.46627e-05C44.4033 0.000156283 34.4902 7.42168 34.49 17.3109L36.13 17.3109Z" fill="#0E1526"/>
<path d="M49.2425 16.9494L54.1008 21.9534L63.643 13.0144" stroke="#0E1526" stroke-width="3.28" stroke-linecap="round" stroke-linejoin="round"/>
</svg>
