<svg width="68" height="86" viewBox="0 0 68 86" fill="none" xmlns="http://www.w3.org/2000/svg">
<path d="M34.845 26.7339C34.5113 27.2334 34.3331 27.8206 34.3331 28.4213C34.3331 29.2267 34.6531 29.9992 35.2227 30.5688C35.7922 31.1384 36.5647 31.4584 37.3702 31.4584C37.9709 31.4584 38.5581 31.2802 39.0576 30.9465C39.557 30.6128 39.9463 30.1385 40.1761 29.5835C40.406 29.0285 40.4662 28.4179 40.349 27.8287C40.2318 27.2396 39.9425 26.6984 39.5178 26.2737C39.093 25.849 38.5519 25.5597 37.9627 25.4425C37.3736 25.3253 36.7629 25.3855 36.208 25.6153C35.653 25.8452 35.1787 26.2345 34.845 26.7339Z" fill="#0E1526"/>
<path d="M12.2065 56.8375L11.0232 55.7019C10.4142 56.3365 10.4142 57.3385 11.0232 57.973L12.2065 56.8375ZM12.4847 56.5476L13.6679 57.6831H13.6679L12.4847 56.5476ZM17.567 49.1999L16.0884 48.4904L17.567 49.1999ZM17.859 48.5914L19.3376 49.3009C19.6301 48.6912 19.5185 47.9645 19.0564 47.4708C18.5943 46.9771 17.8766 46.8176 17.2489 47.0691L17.859 48.5914ZM17.859 65.0835V66.7235C18.4226 66.7235 18.9468 66.434 19.247 65.957C19.5472 65.4799 19.5814 64.8822 19.3376 64.374L17.859 65.0835ZM17.567 64.475L16.0884 65.1845H16.0884L17.567 64.475ZM12.4846 57.1273L13.6679 55.9918H13.6679L12.4846 57.1273ZM4.29297 23.8551L3.10965 22.7196H3.10965L4.29297 23.8551ZM35.2449 18.1852L35.5626 16.5763L35.2449 18.1852ZM31.4249 42.7V44.34C31.4367 44.34 31.4485 44.3398 31.4602 44.3396L31.4249 42.7ZM4.29297 49.714L3.88681 51.3029H3.88681L4.29297 49.714ZM3.21312 47.9582L4.77688 47.4639H4.77688L3.21312 47.9582ZM54.7808 30.0335L56.1804 30.8883L56.1804 30.8883L54.7808 30.0335ZM54.1498 31.0665L55.5493 31.9214V31.9214L54.1498 31.0665ZM34.4083 42.6357L34.4436 44.2754H34.4436L34.4083 42.6357ZM52.2864 26.8322L53.3789 25.6091V25.6091L52.2864 26.8322ZM54.6216 28.918L53.5291 30.1412L53.5291 30.1412L54.6216 28.918ZM41.0432 19.9093L41.6401 18.3818L41.0432 19.9093ZM27.1937 25.508C27.6457 24.7231 27.3757 23.7204 26.5908 23.2684C25.8059 22.8164 24.8032 23.0864 24.3512 23.8713L27.1937 25.508ZM24.3512 37.288C24.8032 38.0729 25.8059 38.3429 26.5908 37.8909C27.3757 37.4389 27.6457 36.4362 27.1937 35.6513L24.3512 37.288ZM19.3376 26.5771C19.7294 25.7605 19.3851 24.7809 18.5684 24.389C17.7518 23.9972 16.7722 24.3415 16.3804 25.1582L19.3376 26.5771ZM16.3804 36.0011C16.7722 36.8177 17.7518 37.1621 18.5684 36.7703C19.3851 36.3784 19.7294 35.3988 19.3376 34.5822L16.3804 36.0011ZM30.2944 54.1397L29.5655 55.6088C30.1011 55.8746 30.739 55.8278 31.2301 55.4866L30.2944 54.1397ZM22.381 50.213L20.9597 49.3947C20.7339 49.7869 20.6802 50.2549 20.8113 50.6881C20.9424 51.1212 21.2466 51.481 21.652 51.6821L22.381 50.213ZM31.8001 15.5291L30.1629 15.6254V15.6254L31.8001 15.5291ZM8.88463 11.5232L9.16525 13.139H9.16525L8.88463 11.5232ZM7.68448 11.7316L7.40386 10.1158C6.73967 10.2311 6.21372 10.7412 6.07804 11.4015C5.94236 12.0619 6.22458 12.738 6.78948 13.1059L7.68448 11.7316ZM12.2065 56.8375L13.3898 57.973L13.6679 57.6831L12.4847 56.5476L11.3014 55.412L11.0232 55.7019L12.2065 56.8375ZM17.567 49.1999L19.0456 49.9094L19.3376 49.3009L17.859 48.5914L16.3804 47.8819L16.0884 48.4904L17.567 49.1999ZM17.859 65.0835L19.3376 64.374L19.0456 63.7656L17.567 64.475L16.0884 65.1845L16.3804 65.793L17.859 65.0835ZM12.4846 57.1273L13.6679 55.9918L13.3897 55.7019L12.2065 56.8375L11.0232 57.973L11.3014 58.2629L12.4846 57.1273ZM4.29297 23.8551L5.47629 24.9906C9.49094 20.8069 14.9114 19.1076 20.3866 18.6679C25.8641 18.228 31.2303 19.0641 34.9271 19.7941L35.2449 18.1852L35.5626 16.5763C31.7729 15.8279 26.0549 14.9221 20.1241 15.3984C14.1909 15.8749 7.87872 17.7497 3.10965 22.7196L4.29297 23.8551ZM31.4249 42.7V41.06H11.3041V42.7V44.34H31.4249V42.7ZM17.859 48.5914L17.2489 47.0691C14.32 48.2429 9.07664 49.2441 4.69914 48.1251L4.29297 49.714L3.88681 51.3029C9.14354 52.6467 15.1225 51.4549 18.4691 50.1137L17.859 48.5914ZM3.21312 47.9582L1.64936 48.4524C1.91598 49.296 2.39898 50.0977 3.10114 50.8406L4.29297 49.714L5.4848 48.5874C5.08019 48.1594 4.87655 47.7793 4.77688 47.4639L3.21312 47.9582ZM54.7808 30.0335L53.3812 29.1786L52.7502 30.2117L54.1498 31.0665L55.5493 31.9214L56.1804 30.8883L54.7808 30.0335ZM34.4083 42.6357L34.3731 40.9961L31.3897 41.0603L31.4249 42.7L31.4602 44.3396L34.4436 44.2754L34.4083 42.6357ZM52.2864 26.8322L51.1939 28.0553L53.5291 30.1412L54.6216 28.918L55.7141 27.6949L53.3789 25.6091L52.2864 26.8322ZM41.0432 19.9093L40.4463 21.4368C44.3693 22.9698 48.0072 25.209 51.1939 28.0553L52.2864 26.8322L53.3789 25.6091C49.9045 22.5058 45.9318 20.0588 41.6401 18.3818L41.0432 19.9093ZM54.1498 31.0665L52.7502 30.2117C48.7219 36.8066 41.8176 40.8359 34.373 40.9961L34.4083 42.6357L34.4436 44.2754C43.0458 44.0902 50.9595 39.4356 55.5493 31.9214L54.1498 31.0665ZM54.7808 30.0335L56.1804 30.8883C56.8066 29.8631 56.6273 28.5106 55.7141 27.6949L54.6216 28.918L53.5291 30.1412C53.24 29.883 53.1964 29.4812 53.3812 29.1786L54.7808 30.0335ZM35.2449 18.1852L34.9271 19.7941C36.7959 20.1631 38.6329 20.7282 40.4463 21.4368L41.0432 19.9093L41.6401 18.3818C39.6793 17.6156 37.6542 16.9893 35.5626 16.5763L35.2449 18.1852ZM11.3041 42.7V41.06C9.24097 41.06 6.64443 41.4498 4.64746 42.4418C3.64433 42.9401 2.65487 43.6587 2.03084 44.6943C1.3681 45.7941 1.21806 47.0877 1.64936 48.4524L3.21312 47.9582L4.77688 47.4639C4.61042 46.9372 4.69513 46.6279 4.84019 46.3872C5.02397 46.0822 5.41536 45.7227 6.10667 45.3793C7.49859 44.6879 9.54532 44.34 11.3041 44.34V42.7ZM17.567 64.475L19.0456 63.7656C17.6672 60.8928 15.8519 58.2675 13.6679 55.9918L12.4846 57.1273L11.3014 58.2629C13.2415 60.2846 14.8586 62.6214 16.0884 65.1845L17.567 64.475ZM12.4847 56.5476L13.6679 57.6831C15.8519 55.4074 17.6672 52.7821 19.0456 49.9094L17.567 49.1999L16.0884 48.4904C14.8586 51.0535 13.2416 53.3903 11.3014 55.412L12.4847 56.5476ZM25.7725 24.6896L24.3512 23.8713C21.972 28.0033 21.972 33.156 24.3512 37.288L25.7725 36.4697L27.1937 35.6513C25.3978 32.5325 25.3978 28.6268 27.1937 25.508L25.7725 24.6896ZM17.859 25.8676L16.3804 25.1582C14.7418 28.5729 14.7418 32.5864 16.3804 36.0011L17.859 35.2917L19.3376 34.5822C18.1294 32.0644 18.1294 29.0949 19.3376 26.5771L17.859 25.8676ZM32.5554 42.3597L31.231 43.3269C31.8922 44.2323 32.5871 45.8449 32.5327 47.5849C32.4814 49.2251 31.7659 51.1206 29.3588 52.7928L30.2944 54.1397L31.2301 55.4866C34.4755 53.2321 35.7268 50.3829 35.8111 47.6874C35.8922 45.0917 34.8914 42.7776 33.8799 41.3925L32.5554 42.3597ZM30.2944 54.1397L31.0234 52.6706L23.1099 48.7439L22.381 50.213L21.652 51.6821L29.5655 55.6088L30.2944 54.1397ZM22.381 50.213L23.8022 51.0314L28.3242 43.178L26.903 42.3597L25.4817 41.5413L20.9597 49.3947L22.381 50.213ZM30.2944 17.6216L31.1082 19.0455C32.3153 18.3557 33.5395 17.1711 33.4373 15.4329L31.8001 15.5291L30.1629 15.6254C30.1629 15.6256 30.1628 15.6232 30.1633 15.6194C30.1638 15.6156 30.1644 15.6139 30.164 15.6152C30.1634 15.617 30.1549 15.6433 30.1181 15.6935C30.0378 15.8031 29.8524 15.9854 29.4807 16.1977L30.2944 17.6216ZM8.88463 11.5232L8.60401 9.90736L7.40386 10.1158L7.68448 11.7316L7.9651 13.3474L9.16525 13.139L8.88463 11.5232ZM7.68448 11.7316L6.78948 13.1059L15.8335 18.9959L16.7285 17.6216L17.6235 16.2474L8.57948 10.3573L7.68448 11.7316ZM31.8001 15.5291L33.4373 15.4329C33.2783 12.7291 31.9802 10.823 29.9733 9.66169C28.0831 8.56791 25.6692 8.19024 23.2443 8.13557C18.3921 8.02617 12.5774 9.2173 8.60401 9.90736L8.88463 11.5232L9.16525 13.139C13.3368 12.4145 18.7273 11.3146 23.1704 11.4147C25.3932 11.4648 27.1493 11.8171 28.3305 12.5006C29.3949 13.1166 30.0694 14.0351 30.1629 15.6254L31.8001 15.5291ZM2.42999 26.073L3.75289 27.0423C4.26695 26.3407 4.83911 25.6547 5.47629 24.9906L4.29297 23.8551L3.10965 22.7196C2.36981 23.4906 1.70471 24.2881 1.1071 25.1037L2.42999 26.073ZM4.29297 49.714L4.69914 48.1251C4.1306 47.9798 3.58174 47.7999 3.05782 47.5828L2.42999 49.0979L1.80216 50.6129C2.48233 50.8948 3.1805 51.1223 3.88681 51.3029L4.29297 49.714ZM17.859 65.0835V63.4435C14.1038 63.4435 8.14564 62.1043 3.99536 57.9846L2.83999 59.1485L1.68463 60.3125C6.63796 65.2293 13.5461 66.7235 17.859 66.7235V65.0835Z" fill="#0E1526"/>
<path d="M2.42999 4.46C2.42999 3.10138 3.53137 2 4.88999 2H63.11C64.4686 2 65.57 3.10138 65.57 4.46V82.7393C65.57 83.3325 64.9598 83.7294 64.4176 83.4889L50.7822 77.4422C50.1472 77.1606 49.4228 77.1606 48.7877 77.4422L34.9972 83.5578C34.3622 83.8394 33.6378 83.8394 33.0027 83.5578L19.2122 77.4422C18.5772 77.1606 17.8528 77.1606 17.2177 77.4422L3.58241 83.4889C3.04022 83.7294 2.42999 83.3325 2.42999 82.7393V4.46Z" stroke="#0E1526" stroke-width="3.28"/>
<path d="M47.841 53.7896V52.1496C46.9353 52.1496 46.201 52.8838 46.201 53.7896H47.841ZM46.201 70.1896C46.201 71.0953 46.9353 71.8296 47.841 71.8296C48.7468 71.8296 49.481 71.0953 49.481 70.1896H46.201ZM45.07 66.1378C44.1643 66.1378 43.43 66.872 43.43 67.7778C43.43 68.6835 44.1643 69.4178 45.07 69.4178V66.1378ZM51.0079 69.4178C51.9137 69.4178 52.6479 68.6835 52.6479 67.7778C52.6479 66.872 51.9137 66.1378 51.0079 66.1378V69.4178ZM45.07 60.8319C44.1643 60.8319 43.43 61.5662 43.43 62.4719C43.43 63.3777 44.1643 64.1119 45.07 64.1119V60.8319ZM47.841 53.7896H46.201V62.4719H47.841H49.481V53.7896H47.841ZM47.841 62.4719V64.1119H52.2088V62.4719V60.8319H47.841V62.4719ZM52.2088 53.7896V52.1496H47.841V53.7896V55.4296H52.2088V53.7896ZM47.841 62.4719H46.201V67.7778H47.841H49.481V62.4719H47.841ZM47.841 67.7778H46.201V70.1896H47.841H49.481V67.7778H47.841ZM47.841 67.7778V66.1378H45.07V67.7778V69.4178H47.841V67.7778ZM47.841 62.4719V60.8319H45.07V62.4719V64.1119H47.841V62.4719ZM45.07 67.7778V69.4178H48.039V67.7778V66.1378H45.07V67.7778ZM48.039 67.7778V69.4178H51.0079V67.7778V66.1378H48.039V67.7778ZM56.55 58.1307H58.19C58.19 54.8274 55.5121 52.1496 52.2088 52.1496V53.7896V55.4296C53.7006 55.4296 54.91 56.6389 54.91 58.1307H56.55ZM52.2088 62.4719V64.1119C55.5121 64.1119 58.19 61.434 58.19 58.1307H56.55H54.91C54.91 59.6225 53.7006 60.8319 52.2088 60.8319V62.4719Z" fill="#0E1526"/>
</svg>
