<svg width="30" height="34" viewBox="0 0 30 34" fill="none" xmlns="http://www.w3.org/2000/svg">
<path d="M4.60261 27.8892C2.69672 27.9318 1.1171 26.4214 1.07445 24.5155C1.03894 22.9294 2.07908 21.5692 3.52762 21.1329" stroke="#0E1526" stroke-width="1.5"/>
<path d="M14.1161 30.7276C13.1837 31.9886 11.6988 32.8201 10.0096 32.8579C7.11069 32.9228 4.70806 30.6254 4.64317 27.7264C4.61054 26.2684 5.1755 24.9359 6.11401 23.9633" stroke="#0E1526" stroke-width="1.5"/>
<circle cx="8.44601" cy="19.2087" r="5.26725" transform="rotate(-1.28221 8.44601 19.2087)" stroke="#0E1526" stroke-width="1.5"/>
<path d="M23.3552 25.5122C23.7322 25.6144 24.1301 25.665 24.5405 25.6558C26.8392 25.6043 28.661 23.6991 28.6095 21.4004C28.5581 19.1017 26.6529 17.28 24.3542 17.3314C22.3085 17.3772 20.6405 18.8911 20.3344 20.844" stroke="#0E1526" stroke-width="1.5"/>
<circle cx="22.8783" cy="6.99604" r="5.38061" transform="rotate(-1.28221 22.8783 6.99604)" stroke="#0E1526" stroke-width="1.5"/>
<circle cx="8.86646" cy="7.1766" r="3.24452" transform="rotate(-1.28221 8.86646 7.1766)" stroke="#0E1526" stroke-width="1.5"/>
<circle cx="17.8163" cy="25.8766" r="6.16386" transform="rotate(-1.28221 17.8163 25.8766)" stroke="#0E1526" stroke-width="1.5"/>
</svg>
