<svg width="34" height="33" viewBox="0 0 34 33" fill="none" xmlns="http://www.w3.org/2000/svg">
<path d="M4.57517 6.02631C4.57517 3.65338 6.51537 1.72974 8.90871 1.72974C9.14805 1.72974 9.34207 1.9221 9.34207 2.15939V6.45597H13.6756C13.9149 6.45597 14.109 6.64834 14.109 6.88563C14.109 9.25856 12.1688 11.1822 9.77542 11.1822H9.34207C6.70938 11.1822 4.57517 9.0662 4.57517 6.45597V6.02631Z" fill="white"/>
<path d="M29.6014 6.02631C29.6014 3.65338 27.6612 1.72974 25.2678 1.72974C25.0285 1.72974 24.8345 1.9221 24.8345 2.15939V6.45597H20.5009C20.2616 6.45597 20.0676 6.64834 20.0676 6.88563C20.0676 9.25856 22.0078 11.1822 24.4011 11.1822H24.8345C27.4672 11.1822 29.6014 9.0662 29.6014 6.45597V6.02631Z" fill="white"/>
<path d="M31.0824 17.7727V18.5227C31.3656 18.5227 31.6246 18.3633 31.7521 18.1105L31.0824 17.7727ZM2.92241 17.7727L2.25275 18.1105C2.38025 18.3633 2.63926 18.5227 2.92241 18.5227V17.7727ZM2.31208 14.8969C2.12556 14.527 1.67455 14.3784 1.3047 14.5649C0.934856 14.7514 0.786236 15.2025 0.97275 15.5723L2.31208 14.8969ZM33.0321 15.5723C33.2186 15.2025 33.07 14.7514 32.7001 14.5649C32.3303 14.3784 31.8793 14.527 31.6927 14.8969L33.0321 15.5723ZM5.59702 22.0035L6.32364 21.8177V21.8177L5.59702 22.0035ZM28.4182 22.0035L27.6915 21.8177L28.4182 22.0035ZM5.69317 21.1792L6.35893 21.5245H6.35893L5.69317 21.1792ZM28.322 21.1792L28.9878 20.8339V20.8339L28.322 21.1792ZM15.1941 12.0591C15.1941 11.6449 14.8584 11.3091 14.4441 11.3091C14.0299 11.3091 13.6941 11.6449 13.6941 12.0591H15.1941ZM20.3141 12.0591C20.3141 11.6449 19.9783 11.3091 19.5641 11.3091C19.1499 11.3091 18.8141 11.6449 18.8141 12.0591H20.3141ZM27.2431 13.965L27.7712 14.4976C28.0019 14.2688 28.0591 13.9174 27.9128 13.6273L27.2431 13.965ZM6.7631 13.965L6.09344 13.6273C5.94712 13.9174 6.00429 14.2688 6.23505 14.4976L6.7631 13.965ZM8.71277 11.7645C8.89928 11.3947 8.75066 10.9437 8.38082 10.7572C8.01097 10.5706 7.55995 10.7193 7.37344 11.0891L8.71277 11.7645ZM26.6328 11.0891C26.4463 10.7193 25.9952 10.5706 25.6254 10.7572C25.2555 10.9437 25.1069 11.3947 25.2934 11.7645L26.6328 11.0891ZM2.28 24.1147V23.3647C1.97413 23.3647 1.69891 23.5505 1.58447 23.8341L2.28 24.1147ZM31.72 24.1147L32.4155 23.8341C32.3011 23.5505 32.0259 23.3647 31.72 23.3647V24.1147ZM32.3045 27.568C32.4594 27.9522 32.8965 28.1379 33.2806 27.983C33.6647 27.828 33.8505 27.391 33.6955 27.0068L32.3045 27.568ZM0.304471 27.0068C0.149497 27.391 0.335265 27.828 0.719395 27.983C1.10352 28.1379 1.54056 27.9522 1.69553 27.568L0.304471 27.0068ZM5.48034 28.557L5.35807 27.8171C5.14189 27.8528 4.95214 27.9813 4.83869 28.1687L5.48034 28.557ZM28.5203 28.557L29.162 28.1687C29.0486 27.9813 28.8588 27.8528 28.6426 27.8171L28.5203 28.557ZM29.7987 32.118C30.0131 32.4724 30.4743 32.5858 30.8286 32.3714C31.183 32.1569 31.2965 31.6958 31.082 31.3414L29.7987 32.118ZM2.91869 31.3414C2.70424 31.6958 2.81766 32.1569 3.17204 32.3714C3.52642 32.5858 3.98754 32.4724 4.202 32.118L2.91869 31.3414ZM9.34207 6.45597H8.59207C8.59207 6.87018 8.92786 7.20597 9.34207 7.20597V6.45597ZM24.8345 6.45597V7.20597C25.2487 7.20597 25.5845 6.87018 25.5845 6.45597H24.8345ZM25.9624 17.7727V18.5227H31.0824V17.7727V17.0227H25.9624V17.7727ZM8.04241 17.7727V17.0227H2.92241V17.7727V18.5227H8.04241V17.7727ZM2.92241 17.7727L3.59208 17.435L2.31208 14.8969L1.64241 15.2346L0.97275 15.5723L2.25275 18.1105L2.92241 17.7727ZM31.0824 17.7727L31.7521 18.1105L33.0321 15.5723L32.3624 15.2346L31.6927 14.8969L30.4127 17.435L31.0824 17.7727ZM5.59702 22.0035L4.8704 22.1893C8.06401 34.6789 25.9512 34.6789 29.1448 22.1893L28.4182 22.0035L27.6915 21.8177C24.8826 32.8028 9.13254 32.8028 6.32364 21.8177L5.59702 22.0035ZM5.69317 21.1792L6.35893 21.5245C10.769 13.0225 23.2461 13.0225 27.6562 21.5245L28.322 21.1792L28.9878 20.8339C24.0179 11.2527 9.99724 11.2527 5.02741 20.8339L5.69317 21.1792ZM28.322 21.1792L27.6562 21.5245C27.7041 21.6167 27.7156 21.7234 27.6915 21.8177L28.4182 22.0035L29.1448 22.1893C29.2617 21.732 29.2024 21.2477 28.9878 20.8339L28.322 21.1792ZM5.69317 21.1792L5.02741 20.8339C4.81276 21.2477 4.75347 21.732 4.8704 22.1893L5.59702 22.0035L6.32364 21.8177C6.29953 21.7234 6.31111 21.6167 6.35893 21.5245L5.69317 21.1792ZM14.4441 14.5973H15.1941V12.0591H14.4441H13.6941V14.5973H14.4441ZM19.5641 14.5973H20.3141V12.0591H19.5641H18.8141V14.5973H19.5641ZM24.6831 16.5032L25.2112 17.0357L27.7712 14.4976L27.2431 13.965L26.715 13.4324L24.155 15.9706L24.6831 16.5032ZM9.3231 16.5032L9.85116 15.9706L7.29116 13.4324L6.7631 13.965L6.23505 14.4976L8.79505 17.0357L9.3231 16.5032ZM6.7631 13.965L7.43277 14.3027L8.71277 11.7645L8.0431 11.4268L7.37344 11.0891L6.09344 13.6273L6.7631 13.965ZM27.2431 13.965L27.9128 13.6273L26.6328 11.0891L25.9631 11.4268L25.2934 11.7645L26.5734 14.3027L27.2431 13.965ZM6.76 24.1147V23.3647H2.28V24.1147V24.8647H6.76V24.1147ZM27.88 24.1147V24.8647H31.72V24.1147V23.3647H27.88V24.1147ZM31.72 24.1147L31.0245 24.3953L32.3045 27.568L33 27.2874L33.6955 27.0068L32.4155 23.8341L31.72 24.1147ZM2.28 24.1147L1.58447 23.8341L0.304471 27.0068L1 27.2874L1.69553 27.568L2.97553 24.3953L2.28 24.1147ZM9.32034 27.9225L9.19807 27.1825L5.35807 27.8171L5.48034 28.557L5.60262 29.297L9.44262 28.6625L9.32034 27.9225ZM24.6803 27.9225L24.5581 28.6625L28.3981 29.297L28.5203 28.557L28.6426 27.8171L24.8026 27.1825L24.6803 27.9225ZM28.5203 28.557L27.8787 28.9453L29.7987 32.118L30.4403 31.7297L31.082 31.3414L29.162 28.1687L28.5203 28.557ZM5.48034 28.557L4.83869 28.1687L2.91869 31.3414L3.56034 31.7297L4.202 32.118L6.122 28.9453L5.48034 28.557ZM9.77542 11.1822V10.4322H9.34207V11.1822V11.9322H9.77542V11.1822ZM4.57517 6.45597H5.32517V6.02631H4.57517H3.82517V6.45597H4.57517ZM9.34207 6.45597V7.20597H13.6756V6.45597V5.70597H9.34207V6.45597ZM9.34207 2.15939H8.59207V6.45597H9.34207H10.0921V2.15939H9.34207ZM13.6756 6.45597V7.20597C13.5068 7.20597 13.359 7.06859 13.359 6.88563H14.109H14.859C14.859 6.22808 14.3231 5.70597 13.6756 5.70597V6.45597ZM9.34207 11.1822V10.4322C7.11753 10.4322 5.32517 8.64594 5.32517 6.45597H4.57517H3.82517C3.82517 9.48646 6.30124 11.9322 9.34207 11.9322V11.1822ZM9.77542 11.1822V11.9322C12.5769 11.9322 14.859 9.67882 14.859 6.88563H14.109H13.359C13.359 8.8383 11.7606 10.4322 9.77542 10.4322V11.1822ZM8.90871 1.72974V2.47974C8.73991 2.47974 8.59207 2.34236 8.59207 2.15939H9.34207H10.0921C10.0921 1.50184 9.55619 0.979736 8.90871 0.979736V1.72974ZM4.57517 6.02631H5.32517C5.32517 4.07364 6.92351 2.47974 8.90871 2.47974V1.72974V0.979736C6.10722 0.979736 3.82517 3.23312 3.82517 6.02631H4.57517ZM24.4011 11.1822V11.9322H24.8345V11.1822V10.4322H24.4011V11.1822ZM29.6014 6.45597H30.3514V6.02631H29.6014H28.8514V6.45597H29.6014ZM24.8345 6.45597V5.70597H20.5009V6.45597V7.20597H24.8345V6.45597ZM24.8345 2.15939H24.0845V6.45597H24.8345H25.5845V2.15939H24.8345ZM20.5009 6.45597V5.70597C19.8535 5.70597 19.3176 6.22808 19.3176 6.88563H20.0676H20.8176C20.8176 7.06859 20.6697 7.20597 20.5009 7.20597V6.45597ZM24.8345 11.1822V11.9322C27.8753 11.9322 30.3514 9.48646 30.3514 6.45597H29.6014H28.8514C28.8514 8.64594 27.059 10.4322 24.8345 10.4322V11.1822ZM24.4011 11.1822V10.4322C22.4159 10.4322 20.8176 8.8383 20.8176 6.88563H20.0676H19.3176C19.3176 9.67882 21.5996 11.9322 24.4011 11.9322V11.1822ZM25.2678 1.72974V0.979736C24.6204 0.979736 24.0845 1.50184 24.0845 2.15939H24.8345H25.5845C25.5845 2.34236 25.4366 2.47974 25.2678 2.47974V1.72974ZM29.6014 6.02631H30.3514C30.3514 3.23312 28.0693 0.979736 25.2678 0.979736V1.72974V2.47974C27.253 2.47974 28.8514 4.07364 28.8514 6.02631H29.6014Z" fill="#0E1526"/>
</svg>
