<svg width="28" height="28" viewBox="0 0 28 28" fill="none" xmlns="http://www.w3.org/2000/svg">
<path d="M15 12.9797C15 12.7325 15.0733 12.4908 15.2107 12.2853C15.348 12.0797 15.5432 11.9195 15.7716 11.8249C16.0001 11.7303 16.2514 11.7055 16.4939 11.7538C16.7363 11.802 16.9591 11.921 17.1339 12.0959C17.3087 12.2707 17.4277 12.4934 17.476 12.7359C17.5242 12.9783 17.4995 13.2297 17.4049 13.4581C17.3102 13.6865 17.15 13.8817 16.9445 14.0191C16.7389 14.1564 16.4972 14.2297 16.25 14.2297C15.9185 14.2297 15.6005 14.098 15.3661 13.8636C15.1317 13.6292 15 13.3113 15 12.9797ZM25.4875 8.97974C25.3563 11.4748 24.2736 13.8245 22.4621 15.5453C20.6507 17.266 18.2485 18.2268 15.75 18.2297H11.75C11.2859 18.2297 10.8408 18.4141 10.5126 18.7423C10.1844 19.0705 10 19.5156 10 19.9797C10 20.4439 10.1844 20.889 10.5126 21.2172C10.8408 21.5454 11.2859 21.7297 11.75 21.7297H18.75C18.9489 21.7297 19.1397 21.8088 19.2803 21.9494C19.421 22.0901 19.5 22.2808 19.5 22.4797C19.5 22.6786 19.421 22.8694 19.2803 23.0101C19.1397 23.1507 18.9489 23.2297 18.75 23.2297H12.5V25.7297H16.75C16.9489 25.7297 17.1397 25.8088 17.2803 25.9494C17.421 26.0901 17.5 26.2808 17.5 26.4797C17.5 26.6786 17.421 26.8694 17.2803 27.0101C17.1397 27.1507 16.9489 27.2297 16.75 27.2297H9.75C7.16414 27.2297 4.68419 26.2025 2.85571 24.374C1.02723 22.5455 0 20.0656 0 17.4797C0 14.8939 1.02723 12.4139 2.85571 10.5854C4.68419 8.75697 7.16414 7.72974 9.75 7.72974H24.25C24.7141 7.72974 25.1592 7.54536 25.4874 7.21717C25.8156 6.88898 26 6.44387 26 5.97974C26 5.51561 25.8156 5.07049 25.4874 4.7423C25.1592 4.41411 24.7141 4.22974 24.25 4.22974H13.75C13.0207 4.22974 12.3212 3.94001 11.8055 3.42428C11.2897 2.90856 11 2.20908 11 1.47974C11 1.28082 11.079 1.09006 11.2197 0.949406C11.3603 0.808754 11.5511 0.729736 11.75 0.729736C11.9489 0.729736 12.1397 0.808754 12.2803 0.949406C12.421 1.09006 12.5 1.28082 12.5 1.47974C12.5 1.81126 12.6317 2.1292 12.8661 2.36362C13.1005 2.59804 13.4185 2.72974 13.75 2.72974H24.25C25.0003 2.73261 25.7264 2.99496 26.3052 3.47229C26.8841 3.94961 27.2799 4.6125 27.4257 5.34847C27.5714 6.08444 27.458 6.84816 27.1047 7.51004C26.7514 8.17192 26.18 8.69119 25.4875 8.97974ZM4.08125 23.4647L8.51625 20.2972C8.50523 20.1918 8.4998 20.0858 8.5 19.9797C8.50004 19.6149 8.56174 19.2527 8.6825 18.9085L1.68875 15.7297C1.38658 17.1159 1.4481 18.5567 1.86732 19.912C2.28655 21.2674 3.04922 22.4913 4.08125 23.4647ZM9.0375 21.7672L5.31125 24.4285C6.63519 25.2795 8.17616 25.7312 9.75 25.7297H11V23.141C10.195 22.9491 9.49334 22.4579 9.0375 21.7672ZM11 16.8185V9.22974H9.75C8.12502 9.23143 6.53661 9.71224 5.18348 10.612C3.83035 11.5118 2.77258 12.7906 2.1425 14.2885L9.5 17.6347C9.91779 17.2331 10.4359 16.9512 11 16.8185ZM23.9662 9.22974H12.5V16.7297H15.75C17.8075 16.7273 19.7901 15.9571 21.3097 14.57C22.8294 13.1828 23.7767 11.2785 23.9662 9.22974Z" fill="#0E1526"/>
</svg>
