<svg width="36" height="33" viewBox="0 0 36 33" fill="none" xmlns="http://www.w3.org/2000/svg">
<path d="M31.7105 5.99561C31.736 6.05859 31.7666 6.14139 31.7954 6.24951C31.8717 6.53547 31.9394 6.94289 31.9956 7.50537C32.166 9.20955 32.206 12.0605 32.2114 16.5601L32.2095 21.6284C32.2063 23.9785 30.7402 26.2052 28.1655 27.8804C25.5978 29.551 22.0066 30.6088 17.9995 30.6089C13.9923 30.6089 10.4003 29.551 7.83253 27.8804C5.33842 26.2575 3.88479 24.1169 3.79347 21.8481L3.78957 21.6284C3.7793 14.089 3.77539 9.77765 4.00246 7.50537C4.05868 6.94283 4.12641 6.53546 4.20265 6.24951C4.23141 6.1417 4.26014 6.05852 4.28566 5.99561C4.33449 6.02342 4.39393 6.05858 4.46242 6.10693C6.10532 7.26703 10.2037 12.6489 17.9995 12.6489C25.7954 12.6488 29.8931 7.2668 31.5357 6.10693C31.6035 6.059 31.6619 6.02334 31.7105 5.99561Z" fill="white" stroke="#0E1526" stroke-width="1.5"/>
<rect x="0.391312" y="0.707275" width="35.2174" height="15.6522" fill="white"/>
<path d="M18 7.979C22.018 7.979 25.6214 9.04225 28.1973 10.7222C30.7798 12.4065 32.2498 14.6466 32.25 17.0112C32.25 19.3759 30.7797 21.6159 28.1973 23.3003C25.6214 24.9802 22.018 26.0444 18 26.0444C13.982 26.0444 10.3786 24.9802 7.80273 23.3003C5.22029 21.6159 3.75 19.3759 3.75 17.0112C3.75016 14.6466 5.22021 12.4065 7.80273 10.7222C10.3786 9.04225 13.982 7.979 18 7.979Z" fill="white" stroke="#0E1526" stroke-width="1.5"/>
<path d="M14.087 11.1421L21.913 22.229" stroke="#0E1526" stroke-width="1.5" stroke-linecap="round" stroke-linejoin="round"/>
<path d="M21.2609 11.7942L26.4783 18.9681" stroke="#0E1526" stroke-width="1.5" stroke-linecap="round" stroke-linejoin="round"/>
<path d="M8.86957 13.7507L14.087 20.9246" stroke="#0E1526" stroke-width="1.5" stroke-linecap="round" stroke-linejoin="round"/>
</svg>
