<svg width="100" height="96" viewBox="0 0 100 96" fill="none" xmlns="http://www.w3.org/2000/svg">
<path d="M54.5701 44.3774C54.5701 43.4817 54.8368 42.6062 55.3365 41.8616C55.8362 41.1169 56.5464 40.5365 57.3774 40.1938C58.2083 39.851 59.1227 39.7613 60.0048 39.9361C60.887 40.1108 61.6972 40.5421 62.3332 41.1754C62.9692 41.8087 63.4023 42.6155 63.5778 43.4939C63.7532 44.3723 63.6632 45.2828 63.319 46.1103C62.9748 46.9377 62.3919 47.6449 61.6441 48.1425C60.8963 48.6401 60.0171 48.9057 59.1176 48.9057C57.9116 48.9057 56.7549 48.4286 55.9021 47.5794C55.0492 46.7301 54.5701 45.5783 54.5701 44.3774ZM92.7238 29.8868C92.2466 38.9253 88.3075 47.4377 81.7175 53.6714C75.1274 59.9051 66.3881 63.3855 57.2986 63.3962H42.7466C41.0581 63.3962 39.4388 64.0642 38.2448 65.2531C37.0508 66.442 36.3801 68.0545 36.3801 69.7358C36.3801 71.4172 37.0508 73.0297 38.2448 74.2186C39.4388 75.4075 41.0581 76.0755 42.7466 76.0755H68.2127C68.9363 76.0755 69.6303 76.3617 70.142 76.8713C70.6537 77.3808 70.9412 78.0719 70.9412 78.7925C70.9412 79.513 70.6537 80.2041 70.142 80.7137C69.6303 81.2232 68.9363 81.5094 68.2127 81.5094H45.4751V90.566H60.9367C61.6603 90.566 62.3543 90.8523 62.866 91.3618C63.3777 91.8714 63.6652 92.5624 63.6652 93.283C63.6652 94.0036 63.3777 94.6947 62.866 95.2042C62.3543 95.7138 61.6603 96 60.9367 96H35.4706C26.0632 96 17.0411 92.2787 10.3891 85.6548C3.73707 79.0309 0 70.0469 0 60.6792C0 51.3116 3.73707 42.3276 10.3891 35.7037C17.0411 29.0798 26.0632 25.3585 35.4706 25.3585H88.2217C89.9102 25.3585 91.5296 24.6906 92.7235 23.5017C93.9175 22.3127 94.5882 20.7002 94.5882 19.0189C94.5882 17.3375 93.9175 15.725 92.7235 14.5361C91.5296 13.3472 89.9102 12.6792 88.2217 12.6792H50.0226C47.3693 12.6792 44.8246 11.6297 42.9484 9.76137C41.0721 7.89308 40.0181 5.35914 40.0181 2.71698C40.0181 1.99639 40.3056 1.30532 40.8173 0.795785C41.329 0.286252 42.023 0 42.7466 0C43.4703 0 44.1643 0.286252 44.6759 0.795785C45.1876 1.30532 45.4751 1.99639 45.4751 2.71698C45.4751 3.91796 45.9542 5.06975 46.807 5.91897C47.6599 6.7682 48.8166 7.24528 50.0226 7.24528H88.2217C90.9511 7.25569 93.5929 8.20611 95.6987 9.93528C97.8045 11.6644 99.2447 14.0658 99.7748 16.732C100.305 19.3982 99.8924 22.1649 98.6072 24.5626C97.322 26.9604 95.2433 28.8415 92.7238 29.8868ZM14.8476 82.3608L30.9822 70.886C30.9421 70.504 30.9224 70.12 30.9231 69.7358C30.9232 68.4143 31.1477 67.1022 31.587 65.8551L6.14369 54.3396C5.04439 59.3612 5.26819 64.5805 6.79333 69.4905C8.31847 74.4005 11.0931 78.8342 14.8476 82.3608ZM32.8785 76.2113L19.3224 85.8521C24.1389 88.9349 29.7449 90.5714 35.4706 90.566H40.0181V81.1879C37.0896 80.4927 34.5369 78.7133 32.8785 76.2113ZM40.0181 58.2838V30.7925H35.4706C29.5589 30.7986 23.7802 32.5404 18.8575 35.8C13.9348 39.0596 10.0867 43.6923 7.79443 49.1185L34.5611 61.2408C36.081 59.7858 37.9658 58.7645 40.0181 58.2838ZM87.1894 30.7925H45.4751V57.9623H57.2986C64.784 57.9534 71.9966 55.1634 77.525 50.1382C83.0534 45.113 86.4997 38.2145 87.1894 30.7925Z" fill="#243F86"/>
</svg>
