<svg style="width:0; height:0; visibility: hidden;" xmlns="http://www.w3.org/2000/svg">
    <symbol id="svg-logo"  viewBox="0 0 346 428">
	<path d="M77.6089 107.689C82.7837 107.309 89.1067 107.224 94.2876 107.484C96.932 107.617 108.531 108.624 109.873 109.94C110.401 110.459 110.895 111.931 111.303 112.728C121.088 131.726 118.727 173.875 112.608 194.123C111.213 198.727 107.746 208.208 105.257 212.088C103.689 214.538 99.0786 212.679 96.4761 212.106C79.5869 208.37 63.5265 199.584 50.6763 188.087C37.9042 176.657 19.5426 152.915 41.0112 140.302C41.4921 138.818 40.1281 137.538 39.9058 136.15C38.77 129.077 47.2142 120.193 52.5454 116.319C59.9201 110.954 68.5692 108.365 77.6147 107.695L77.6089 107.689ZM56.4106 149.143C55.7014 148.069 53.9765 148.48 53.772 149.505C53.5977 150.404 55.1606 155.322 55.6655 156.53C58.7969 164.049 68.095 170.211 76.2632 170.29C86.2282 170.38 97.8938 160.121 99.3726 150.363H99.3667C98.1706 148.993 93.1154 158.015 92.4663 158.818C81.4432 172.372 62.3968 169.62 56.9634 152.813C56.6088 151.709 56.9275 149.928 56.4106 149.143ZM81.9722 131.992C91.4626 131.159 88.8063 117.901 79.9771 119.723C72.1277 121.347 73.6482 132.721 81.9722 131.992Z" fill="#E6EDF6"/>
<path d="M77.6089 107.689C82.7837 107.309 89.1067 107.224 94.2876 107.484C96.932 107.617 108.531 108.624 109.873 109.94C110.401 110.459 110.895 111.931 111.303 112.728C121.088 131.726 118.727 173.875 112.608 194.123C111.213 198.727 107.746 208.208 105.257 212.088C103.689 214.538 99.0786 212.679 96.4761 212.106C79.5869 208.37 63.5265 199.584 50.6763 188.087C37.9042 176.657 19.5426 152.915 41.0112 140.302C41.4921 138.818 40.1281 137.538 39.9058 136.15C38.77 129.077 47.2142 120.193 52.5454 116.319C59.9201 110.954 68.5692 108.365 77.6147 107.695L77.6089 107.689ZM56.4106 149.143C55.7014 148.069 53.9765 148.48 53.772 149.505C53.5977 150.404 55.1606 155.322 55.6655 156.53C58.7969 164.049 68.095 170.211 76.2632 170.29C86.2282 170.38 97.8938 160.121 99.3726 150.363H99.3667C98.1706 148.993 93.1154 158.015 92.4663 158.818C81.4432 172.372 62.3968 169.62 56.9634 152.813C56.6088 151.709 56.9275 149.928 56.4106 149.143ZM81.9722 131.992C91.4626 131.159 88.8063 117.901 79.9771 119.723C72.1277 121.347 73.6482 132.721 81.9722 131.992Z" stroke="black"/>
<path d="M180.193 166.963C191.006 166.143 194.546 177.169 187.357 184.695C181.455 190.874 180.475 187.03 174.194 186.583C170.288 186.306 166.838 187.814 163.058 186.891C162.306 186.384 162.625 185.998 162.721 185.346C164.055 176.245 167.175 179.619 172.386 175.086C175.174 172.66 176.701 167.223 180.193 166.957V166.963Z" fill="#E6EDF6"/>
<path d="M180.193 166.963C191.006 166.143 194.546 177.169 187.357 184.695C181.455 190.874 180.475 187.03 174.194 186.583C170.288 186.306 166.838 187.814 163.058 186.891C162.306 186.384 162.625 185.998 162.721 185.346C164.055 176.245 167.175 179.619 172.386 175.086C175.174 172.66 176.701 167.223 180.193 166.957V166.963Z" stroke="black"/>
<path d="M247.62 127.219C250.205 124.992 249.82 121.661 254.165 126.205C261.396 133.754 256.01 144.37 248.028 148.474C243.394 144.34 238.556 141.703 232.161 141.661L230.496 136.675C230.425 135.968 234.012 132.24 234.619 131.968C236.025 131.341 237.564 131.902 238.977 131.516C242.198 130.641 245.072 129.416 247.62 127.219Z" fill="#E6EDF6"/>
<path d="M247.62 127.219C250.205 124.992 249.82 121.661 254.165 126.205C261.396 133.754 256.01 144.37 248.028 148.474C243.394 144.34 238.556 141.703 232.161 141.661L230.496 136.675C230.425 135.968 234.012 132.24 234.619 131.968C236.025 131.341 237.564 131.902 238.977 131.516C242.198 130.641 245.072 129.416 247.62 127.219Z" stroke="black"/>
<path d="M164.736 150.514C169.508 149.247 175.782 153.254 176.774 158.04C177.766 162.825 174.857 169.126 171.292 172.475L171.287 172.481C170.313 173.399 164.67 177.297 163.69 176.319C163.521 171.141 160.221 166.942 155.233 165.686C155.311 163.176 155.016 159.928 156.218 157.653C156.561 157.001 164.129 150.677 164.736 150.514Z" fill="#E6EDF6"/>
<path d="M164.736 150.514C169.508 149.247 175.782 153.254 176.774 158.04C177.766 162.825 174.857 169.126 171.292 172.475L171.287 172.481C170.313 173.399 164.67 177.297 163.69 176.319C163.521 171.141 160.221 166.942 155.233 165.686C155.311 163.176 155.016 159.928 156.218 157.653C156.561 157.001 164.129 150.677 164.736 150.514Z" stroke="black"/>
<path d="M228.296 149.758C232.551 145.599 229.306 142.6 238.22 145.231C244.5 147.09 249.279 153.276 247.554 160.035C245.829 166.794 243.292 163.342 239.019 163.263C236.747 163.221 233.693 163.836 231.367 164.114C228.44 160.373 225.051 158.278 220.183 158.206C219.498 152.473 225.122 152.853 228.296 149.758Z" fill="#E6EDF6"/>
<path d="M228.296 149.758C232.551 145.599 229.306 142.6 238.22 145.231C244.5 147.09 249.279 153.276 247.554 160.035C245.829 166.794 243.292 163.342 239.019 163.263C236.747 163.221 233.693 163.836 231.367 164.114C228.44 160.373 225.051 158.278 220.183 158.206C219.498 152.473 225.122 152.853 228.296 149.758Z" stroke="black"/>
<path d="M127.324 158.823C134.657 163.017 141.407 167.616 140.265 177.241C139.561 183.15 131.777 191.659 125.875 192.564V192.558C124.859 190.065 124.09 187.03 122.365 184.911C121.307 183.614 117.99 181.985 118.074 180.947C118.279 178.382 123.735 177.097 125.839 175.425C129.523 172.492 130.864 168.817 129.896 164.085C129.452 161.913 127.192 160.826 127.324 158.823Z" fill="#E6EDF6"/>
<path d="M127.324 158.823C134.657 163.017 141.407 167.616 140.265 177.241C139.561 183.15 131.777 191.659 125.875 192.564V192.558C124.859 190.065 124.09 187.03 122.365 184.911C121.307 183.614 117.99 181.985 118.074 180.947C118.279 178.382 123.735 177.097 125.839 175.425C129.523 172.492 130.864 168.817 129.896 164.085C129.452 161.913 127.192 160.826 127.324 158.823Z" stroke="black"/>
<path d="M193.549 180.626C198.069 181.127 206.063 182.461 206.411 188.062C207.084 198.804 192.977 201.713 185.326 204.676C187.574 199.064 186.42 195.212 183.523 190.203C188.524 188.701 190.405 184.223 193.549 180.626Z" fill="#E6EDF6"/>
<path d="M193.549 180.626C198.069 181.127 206.063 182.461 206.411 188.062C207.084 198.804 192.977 201.713 185.326 204.676C187.574 199.064 186.42 195.212 183.523 190.203C188.524 188.701 190.405 184.223 193.549 180.626Z" stroke="black"/>
<path d="M143.868 173.609C149.638 172.776 152.626 164.478 158.281 169.97C164.844 176.343 161.322 187.724 153.467 191.092C147.679 193.572 148.88 189.095 144.751 185.975C143.573 185.088 142.305 184.484 140.887 184.104V184.098L143.868 173.609Z" fill="#E6EDF6"/>
<path d="M143.868 173.609C149.638 172.776 152.626 164.478 158.281 169.97C164.844 176.343 161.322 187.724 153.467 191.092C147.679 193.572 148.88 189.095 144.751 185.975C143.573 185.088 142.305 184.484 140.887 184.104V184.098L143.868 173.609Z" stroke="black"/>
<path d="M229.203 188.369C229.202 188.369 229.201 188.37 229.2 188.371V188.377C229.201 188.374 229.202 188.371 229.203 188.369ZM229.203 188.369C235.628 186.052 243.734 185.509 246.955 178.745C252.737 166.608 240.692 165.124 231.604 166.047C232.031 171.08 229.897 175.673 226.207 179.028C228.94 181.386 230.958 184.787 229.203 188.369Z" fill="#E6EDF6"/>
<path d="M229.203 188.369C229.202 188.369 229.201 188.37 229.2 188.371V188.377C229.201 188.374 229.202 188.371 229.203 188.369ZM229.203 188.369C235.628 186.052 243.734 185.509 246.955 178.745C252.737 166.608 240.692 165.124 231.604 166.047C232.031 171.08 229.897 175.673 226.207 179.028C228.94 181.386 230.958 184.787 229.203 188.369Z" stroke="black"/>
<path d="M138.27 186.686C144.779 184.718 148.956 195.279 146.558 201.055C145.145 204.452 138.359 210.064 134.639 208.827C133.7 208.511 129.241 199.817 125.227 201.042H125.221L126.555 195.152C130.924 195.557 135.944 187.386 138.27 186.686Z" fill="#E6EDF6"/>
<path d="M138.27 186.686C144.779 184.718 148.956 195.279 146.558 201.055C145.145 204.452 138.359 210.064 134.639 208.827C133.7 208.511 129.241 199.817 125.227 201.042H125.221L126.555 195.152C130.924 195.557 135.944 187.386 138.27 186.686Z" stroke="black"/>
<path d="M198.009 150.18C202.679 146.191 201.279 141.99 208.491 142.491C217.374 143.107 221.197 152.515 215.728 159.763C214.7 161.127 211.431 163.836 209.688 163.655C208.251 163.505 203.034 158.822 200.413 159.347C200.714 155.829 199.127 153.27 198.009 150.18Z" fill="#E6EDF6"/>
<path d="M198.009 150.18C202.679 146.191 201.279 141.99 208.491 142.491C217.374 143.107 221.197 152.515 215.728 159.763C214.7 161.127 211.431 163.836 209.688 163.655C208.251 163.505 203.034 158.822 200.413 159.347C200.714 155.829 199.127 153.27 198.009 150.18Z" stroke="black"/>
<path d="M276.043 144.636C276.045 146.398 284.255 149.386 286.04 150.309C286.67 150.634 287.175 149.989 286.899 151.564L268.868 155.794C268.411 148.691 263.789 145.299 258.115 142.143C258.223 140.152 259.161 140.037 260.711 139.482C263.963 138.323 267.87 138.257 271.272 137.388C276.345 136.085 281.279 134.322 286.297 132.868L276.043 144.636Z" fill="#E6EDF6"/>
<path d="M276.043 144.636C276.045 146.398 284.255 149.386 286.04 150.309C286.67 150.634 287.175 149.989 286.899 151.564L268.868 155.794C268.411 148.691 263.789 145.299 258.115 142.143C258.223 140.152 259.161 140.037 260.711 139.482C263.963 138.323 267.87 138.257 271.272 137.388C276.345 136.085 281.279 134.322 286.297 132.868L276.043 144.636Z" stroke="black"/>
<path d="M284.984 161.419C291.74 160.03 301.712 156.947 306.13 163.633L265.265 175.71L267.669 166.965C273.192 164.437 279.034 162.644 284.984 161.419Z" fill="#E6EDF6"/>
<path d="M284.984 161.419C291.74 160.03 301.712 156.947 306.13 163.633L265.265 175.71L267.669 166.965C273.192 164.437 279.034 162.644 284.984 161.419Z" stroke="black"/>
<path d="M171.329 132.342C184.636 132.831 191.031 146.379 178.308 153.893C174.178 150.344 171.401 147.786 165.493 147.936L165.487 147.942C167.32 144.539 166.816 140.567 166.185 136.904L171.329 132.342Z" fill="#E6EDF6"/>
<path d="M171.329 132.342C184.636 132.831 191.031 146.379 178.308 153.893C174.178 150.344 171.401 147.786 165.493 147.936L165.487 147.942C167.32 144.539 166.816 140.567 166.185 136.904L171.329 132.342Z" stroke="black"/>
<path d="M134.996 113.651C141.535 116.065 160.065 114.828 151.987 126.578H151.993C147.912 132.516 140.159 129.577 134.521 128.648C133.571 125.763 131.353 124.248 128.823 122.909C129.766 121.859 130.969 121.007 131.726 119.788C132.736 118.165 133.505 113.584 134.996 113.651Z" fill="#E6EDF6"/>
<path d="M134.996 113.651C141.535 116.065 160.065 114.828 151.987 126.578H151.993C147.912 132.516 140.159 129.577 134.521 128.648C133.571 125.763 131.353 124.248 128.823 122.909C129.766 121.859 130.969 121.007 131.726 119.788C132.736 118.165 133.505 113.584 134.996 113.651Z" stroke="black"/>
<path d="M144.287 151.11C148.037 150.477 150.628 151.967 152.383 155.371C156.205 162.782 149.558 169.155 143.007 171.436C140.711 167.254 138.974 163.681 135.115 160.634C133.859 159.644 128.589 157.224 128.822 156.101C130.163 154.581 132.344 155.401 134.268 154.925C137.351 154.158 141.294 151.617 144.287 151.11Z" fill="#E6EDF6"/>
<path d="M144.287 151.11C148.037 150.477 150.628 151.967 152.383 155.371C156.205 162.782 149.558 169.155 143.007 171.436C140.711 167.254 138.974 163.681 135.115 160.634C133.859 159.644 128.589 157.224 128.822 156.101C130.163 154.581 132.344 155.401 134.268 154.925C137.351 154.158 141.294 151.617 144.287 151.11Z" stroke="black"/>
<path d="M147.456 132.257C153.502 130.404 152.619 127.266 158.821 132.003C165.024 136.74 166.25 143.156 161.538 149.716C160.492 151.176 156.447 155.292 154.662 154.314C153.43 153.439 153.003 151.496 152.06 150.555L152.066 150.56C151.129 149.625 149.44 149.414 148.694 148.159C148.28 146.753 153.22 142.341 149.98 136.053C149.211 134.562 147.522 133.946 147.456 132.257Z" fill="#E6EDF6"/>
<path d="M147.456 132.257C153.502 130.404 152.619 127.266 158.821 132.003C165.024 136.74 166.25 143.156 161.538 149.716C160.492 151.176 156.447 155.292 154.662 154.314C153.43 153.439 153.003 151.496 152.06 150.555L152.066 150.56C151.129 149.625 149.44 149.414 148.694 148.159C148.28 146.753 153.22 142.341 149.98 136.053C149.211 134.562 147.522 133.946 147.456 132.257Z" stroke="black"/>
<path d="M130.632 152.764C137.707 153.371 153.186 145.129 147.459 136.777C144.923 133.09 139.862 131.038 135.462 131.678C135.204 136.674 132.524 140.452 128.881 143.506C130.563 146.437 131.933 149.368 130.632 152.764ZM130.632 152.764C130.632 152.766 130.631 152.768 130.63 152.769V152.764H130.632Z" fill="#E6EDF6"/>
<path d="M130.632 152.764C137.707 153.371 153.186 145.129 147.459 136.777C144.923 133.09 139.862 131.038 135.462 131.678C135.204 136.674 132.524 140.452 128.881 143.506C130.563 146.437 131.933 149.368 130.632 152.764ZM130.632 152.764C130.632 152.766 130.631 152.768 130.63 152.769V152.764H130.632Z" stroke="black"/>
<path d="M178.111 209.503C180.906 209.503 184.471 206.637 187.146 207.983C187.752 208.291 188.046 209.323 188.575 209.854V209.86C193.498 214.766 200.716 223.239 204.81 228.864C206.799 231.597 208.56 234.537 209.365 237.862C200.272 233.661 192.705 226.739 185.901 219.467C184.711 218.2 177.444 210.27 178.111 209.503Z" fill="#E6EDF6"/>
<path d="M178.111 209.503C180.906 209.503 184.471 206.637 187.146 207.983C187.752 208.291 188.046 209.323 188.575 209.854V209.86C193.498 214.766 200.716 223.239 204.81 228.864C206.799 231.597 208.56 234.537 209.365 237.862C200.272 233.661 192.705 226.739 185.901 219.467C184.711 218.2 177.444 210.27 178.111 209.503Z" stroke="black"/>
<path d="M198.839 162.389C200.486 160.941 206.52 164.235 207.951 165.665H207.945C211.804 169.534 212.603 178.563 207.897 181.786C205.727 183.27 205.595 181.29 204.17 180.621C201.117 179.184 197.847 178.025 194.421 178.043L192.042 169.45C194.908 167.814 196.543 164.399 198.839 162.389Z" fill="#E6EDF6"/>
<path d="M198.839 162.389C200.486 160.941 206.52 164.235 207.951 165.665H207.945C211.804 169.534 212.603 178.563 207.897 181.786C205.727 183.27 205.595 181.29 204.17 180.621C201.117 179.184 197.847 178.025 194.421 178.043L192.042 169.45C194.908 167.814 196.543 164.399 198.839 162.389Z" stroke="black"/>
<path d="M249.791 160.776C251.231 159.583 258.325 159.843 260.29 160.482C267.183 162.728 264.869 173.585 260.494 177.254C257.825 179.487 252.248 179.596 249.333 181.726C247.944 180.688 248.815 180.869 249.02 180.23C249.958 177.224 251.213 175.275 250.859 171.774C250.564 168.817 247.722 166.904 247.824 165.202C247.854 164.71 249.507 161.041 249.791 160.776Z" fill="#E6EDF6"/>
<path d="M249.791 160.776C251.231 159.583 258.325 159.843 260.29 160.482C267.183 162.728 264.869 173.585 260.494 177.254C257.825 179.487 252.248 179.596 249.333 181.726C247.944 180.688 248.815 180.869 249.02 180.23C249.958 177.224 251.213 175.275 250.859 171.774C250.564 168.817 247.722 166.904 247.824 165.202C247.854 164.71 249.507 161.041 249.791 160.776Z" stroke="black"/>
<path d="M185.623 82.7819C186.195 82.797 190.034 92.1717 190.154 93.3249C190.437 96.113 185.683 117.055 184.15 118.111L176.312 117.773L176.307 117.766L185.623 82.7819Z" fill="#E6EDF6"/>
<path d="M185.623 82.7819C186.195 82.797 190.034 92.1717 190.154 93.3249C190.437 96.113 185.683 117.055 184.15 118.111L176.312 117.773L176.307 117.766L185.623 82.7819Z" stroke="black"/>
<path d="M182.34 132.626C190.73 123.561 206.219 131.925 200.209 143.892C197.066 150.157 192.99 147.14 187.779 146.084C188.476 140.194 185.603 136.88 182.34 132.626Z" fill="#E6EDF6"/>
<path d="M182.34 132.626C190.73 123.561 206.219 131.925 200.209 143.892C197.066 150.157 192.99 147.14 187.779 146.084C188.476 140.194 185.603 136.88 182.34 132.626Z" stroke="black"/>
<path d="M182.019 154.593C186.07 151.129 185.524 147.436 192.261 149.729C198.999 152.022 198.842 159.083 194.647 163.645C189.394 169.36 185.962 164.05 179.591 164.286L179.405 155.884C179.502 155.739 181.28 155.221 182.019 154.593Z" fill="#E6EDF6"/>
<path d="M182.019 154.593C186.07 151.129 185.524 147.436 192.261 149.729C198.999 152.022 198.842 159.083 194.647 163.645C189.394 169.36 185.962 164.05 179.591 164.286L179.405 155.884C179.502 155.739 181.28 155.221 182.019 154.593Z" stroke="black"/>
<path d="M169.11 189.891C169.086 188.255 177.927 189.674 179.292 190.525C187.026 195.353 184.394 204.712 176.635 207.718C175.145 208.297 163.61 211.785 163.093 211.309H163.087C162.895 206.68 166.856 207.115 169.417 204.091C172.981 199.885 173.179 193.82 169.11 189.891Z" fill="#E6EDF6"/>
<path d="M169.11 189.891C169.086 188.255 177.927 189.674 179.292 190.525C187.026 195.353 184.394 204.712 176.635 207.718C175.145 208.297 163.61 211.785 163.093 211.309H163.087C162.895 206.68 166.856 207.115 169.417 204.091C172.981 199.885 173.179 193.82 169.11 189.891Z" stroke="black"/>
<path d="M212.741 179.402C219.743 174.864 232.292 184.682 225.59 189.89C222.164 192.552 211.334 193.879 206.964 196.227C207.241 194.374 208.449 193.005 208.713 191.049C208.99 188.961 208.401 186.571 208.912 184.61C209.098 183.892 212.11 179.806 212.741 179.402Z" fill="#E6EDF6"/>
<path d="M212.741 179.402C219.743 174.864 232.292 184.682 225.59 189.89C222.164 192.552 211.334 193.879 206.964 196.227C207.241 194.374 208.449 193.005 208.713 191.049C208.99 188.961 208.401 186.571 208.912 184.61C209.098 183.892 212.11 179.806 212.741 179.402Z" stroke="black"/>
<path d="M219.308 160.64C220.145 160.562 224.429 161.425 225.342 161.787C232.212 164.485 228.275 176.295 223.443 176.923C220.678 177.279 216.885 174.382 213.574 176.319L213.58 176.313C214.896 172.964 212.077 168.987 211.873 166.85C211.771 165.752 218.082 160.749 219.308 160.64Z" fill="#E6EDF6"/>
<path d="M219.308 160.64C220.145 160.562 224.429 161.425 225.342 161.787C232.212 164.485 228.275 176.295 223.443 176.923C220.678 177.279 216.885 174.382 213.574 176.319L213.58 176.313C214.896 172.964 212.077 168.987 211.873 166.85C211.771 165.752 218.082 160.749 219.308 160.64Z" stroke="black"/>
<path d="M294.714 120.194C295.442 120.834 291.854 124.846 290.627 124.835L260.203 131.679L255.659 124.105L294.714 120.194Z" fill="#E6EDF6"/>
<path d="M294.714 120.194C295.442 120.834 291.854 124.846 290.627 124.835L260.203 131.679L255.659 124.105L294.714 120.194Z" stroke="black"/>
<path d="M116.787 207.375C121.463 205.782 122.911 201.014 128.236 204.967C131.566 207.441 134.956 213.797 129.715 216.126L107.789 214.327L110.794 208.6C112.825 208.195 114.804 208.051 116.787 207.375Z" fill="#E6EDF6"/>
<path d="M116.787 207.375C121.463 205.782 122.911 201.014 128.236 204.967C131.566 207.441 134.956 213.797 129.715 216.126L107.789 214.327L110.794 208.6C112.825 208.195 114.804 208.051 116.787 207.375Z" stroke="black"/>
<path d="M149.947 195.105C156.919 194.073 160.946 184.302 167.611 191.985C172.299 197.386 168.255 203.203 162.779 205.738C161.265 204.447 160.027 202.975 158.218 202.021C154.209 199.915 148.283 201.206 149.947 195.105Z" fill="#E6EDF6"/>
<path d="M149.947 195.105C156.919 194.073 160.946 184.302 167.611 191.985C172.299 197.386 168.255 203.203 162.779 205.738C161.265 204.447 160.027 202.975 158.218 202.021C154.209 199.915 148.283 201.206 149.947 195.105Z" stroke="black"/>
<path d="M149.694 202.359C153.402 201.303 163.175 206.716 160.38 211.321C158.613 214.229 138.412 215.357 134.235 216.136L135.425 211.604C139.2 210.753 142.463 209.775 145.366 207.102C146.634 205.937 148.492 202.697 149.694 202.359Z" fill="#E6EDF6"/>
<path d="M149.694 202.359C153.402 201.303 163.175 206.716 160.38 211.321C158.613 214.229 138.412 215.357 134.235 216.136L135.425 211.604C139.2 210.753 142.463 209.775 145.366 207.102C146.634 205.937 148.492 202.697 149.694 202.359Z" stroke="black"/>
<path d="M117.404 123.205C125.295 122.752 136.462 126.856 131.678 136.632C128.457 143.217 125.541 141.304 119.946 138.752L117.404 123.205Z" fill="#E6EDF6"/>
<path d="M117.404 123.205C125.295 122.752 136.462 126.856 131.678 136.632C128.457 143.217 125.541 141.304 119.946 138.752L117.404 123.205Z" stroke="black"/>
<path d="M155.872 117.78C158.931 118.287 168.006 118.245 169.617 120.568C172.899 125.287 170.015 131.854 165.08 133.984C161.756 131.842 159.436 128.323 155.337 127.357H155.343C155.673 123.821 157.026 121.467 155.872 117.78Z" fill="#E6EDF6"/>
<path d="M155.872 117.78C158.931 118.287 168.006 118.245 169.617 120.568C172.899 125.287 170.015 131.854 165.08 133.984C161.756 131.842 159.436 128.323 155.337 127.357H155.343C155.673 123.821 157.026 121.467 155.872 117.78Z" stroke="black"/>
<path d="M210.391 125.1C212.152 124.647 215.62 127.563 216.485 129.035C218.234 132.004 218.09 134.756 216.245 137.665C213.006 142.77 209.08 139.301 203.978 140.079L203.983 140.072C204.115 137.236 201.862 133.839 203.322 131.322C203.665 130.737 209.934 125.214 210.391 125.1Z" fill="#E6EDF6"/>
<path d="M210.391 125.1C212.152 124.647 215.62 127.563 216.485 129.035C218.234 132.004 218.09 134.756 216.245 137.665C213.006 142.77 209.08 139.301 203.978 140.079L203.983 140.072C204.115 137.236 201.862 133.839 203.322 131.322C203.665 130.737 209.934 125.214 210.391 125.1Z" stroke="black"/>
<path d="M256.634 145.057C257.758 144.954 261.564 147.09 262.549 147.953C265.993 150.959 267.706 156.366 264.346 160.024C260.169 156.089 255.192 158.574 250.51 157.029C250.27 155.05 249.02 152.184 249.927 150.361C250.12 149.975 256.043 145.119 256.634 145.063V145.057Z" fill="#E6EDF6"/>
<path d="M256.634 145.057C257.758 144.954 261.564 147.09 262.549 147.953C265.993 150.959 267.706 156.366 264.346 160.024C260.169 156.089 255.192 158.574 250.51 157.029C250.27 155.05 249.02 152.184 249.927 150.361C250.12 149.975 256.043 145.119 256.634 145.063V145.057Z" stroke="black"/>
<path d="M131.228 112.952C130.098 122.252 124.754 122.548 116.923 120.073L113.196 109.935L131.228 112.952Z" fill="#E6EDF6"/>
<path d="M131.228 112.952C130.098 122.252 124.754 122.548 116.923 120.073L113.196 109.935L131.228 112.952Z" stroke="black"/>
<path d="M218.044 139.462C220.22 135.889 219.535 134.194 225.034 135.533C233.461 137.585 228.052 150.41 220.791 150.965C221.542 147.984 215.64 143.246 216.037 141.725C216.248 140.928 217.557 140.253 218.044 139.462Z" fill="#E6EDF6"/>
<path d="M218.044 139.462C220.22 135.889 219.535 134.194 225.034 135.533C233.461 137.585 228.052 150.41 220.791 150.965C221.542 147.984 215.64 143.246 216.037 141.725C216.248 140.928 217.557 140.253 218.044 139.462Z" stroke="black"/>
<path d="M214.772 123.206C219.334 123.876 226.492 122.301 230.7 123.206C234.738 124.075 233.314 129.023 231.595 131.347C227.881 136.38 225.537 131.848 220.236 132.801C219.941 128.438 217.843 125.958 214.772 123.206Z" fill="#E6EDF6"/>
<path d="M214.772 123.206C219.334 123.876 226.492 122.301 230.7 123.206C234.738 124.075 233.314 129.023 231.595 131.347C227.881 136.38 225.537 131.848 220.236 132.801C219.941 128.438 217.843 125.958 214.772 123.206Z" stroke="black"/>
<path d="M118.018 184.762C119.039 184.008 120.854 187.157 121.269 187.827C124.268 192.71 124.743 198.636 120.211 202.655H120.205C119.087 203.645 112.987 206.819 112.001 205.878L118.018 184.762Z" fill="#E6EDF6"/>
<path d="M118.018 184.762C119.039 184.008 120.854 187.157 121.269 187.827C124.268 192.71 124.743 198.636 120.211 202.655H120.205C119.087 203.645 112.987 206.819 112.001 205.878L118.018 184.762Z" stroke="black"/>
<path d="M282.58 154.772C284.642 154.343 288.783 153.276 290.646 153.487C291.471 153.584 297.239 155.882 295.911 156.993C286.367 157.626 276.461 159.975 267.86 164.151L266.509 163.257C266.322 162.37 266.527 161.55 266.905 160.759C268.035 158.394 279.599 155.394 282.58 154.772Z" fill="#E6EDF6"/>
<path d="M282.58 154.772C284.642 154.343 288.783 153.276 290.646 153.487C291.471 153.584 297.239 155.882 295.911 156.993C286.367 157.626 276.461 159.975 267.86 164.151L266.509 163.257C266.322 162.37 266.527 161.55 266.905 160.759C268.035 158.394 279.599 155.394 282.58 154.772Z" stroke="black"/>
<path d="M120.752 141.936C131.912 142.866 130.058 158.496 119.809 158.804L120.02 142.811L120.752 141.936Z" fill="#E6EDF6"/>
<path d="M120.752 141.936C131.912 142.866 130.058 158.496 119.809 158.804L120.02 142.811L120.752 141.936Z" stroke="black"/>
<path d="M120.103 162.42C121.227 160.894 124.142 160.266 125.638 161.407C126.359 161.956 127.471 164.81 127.585 165.812C128.186 170.99 123.962 174.889 119.213 175.704L120.103 162.42Z" fill="#E6EDF6"/>
<path d="M120.103 162.42C121.227 160.894 124.142 160.266 125.638 161.407C126.359 161.956 127.471 164.81 127.585 165.812C128.186 170.99 123.962 174.889 119.213 175.704L120.103 162.42Z" stroke="black"/>
<path d="M172.099 119.584C176.805 120.483 182.371 119.264 182.371 125.915C182.37 132.981 177.263 131.297 172.695 129.831C173.787 126.248 173.559 122.967 172.099 119.584Z" fill="#E6EDF6"/>
<path d="M172.099 119.584C176.805 120.483 182.371 119.264 182.371 125.915C182.37 132.981 177.263 131.297 172.695 129.831C173.787 126.248 173.559 122.967 172.099 119.584Z" stroke="black"/>
<path d="M289.904 128.04C286.52 131.316 279.573 133.206 274.879 134.371C272.258 135.022 263.351 137.044 261.205 136.965C259.6 136.905 259.528 135.215 260.104 134.02L289.904 128.04Z" fill="#E6EDF6"/>
<path d="M289.904 128.04C286.52 131.316 279.573 133.206 274.879 134.371C272.258 135.022 263.351 137.044 261.205 136.965C259.6 136.905 259.528 135.215 260.104 134.02L289.904 128.04Z" stroke="black"/>
<path d="M207.56 122.601V122.607C208.702 123.609 202.956 128.997 201.207 129.245C198.971 129.559 194.391 125.866 191.338 126.216L193.525 121.448L207.56 122.601Z" fill="#E6EDF6"/>
<path d="M207.56 122.601V122.607C208.702 123.609 202.956 128.997 201.207 129.245C198.971 129.559 194.391 125.866 191.338 126.216L193.525 121.448L207.56 122.601Z" stroke="black"/>
<path d="M191.913 98.7324C191.57 97.7188 192.803 97.5376 193.127 97.8574H193.121C193.307 98.0384 195.363 102.263 195.423 102.517C195.916 104.737 192.129 116.126 190.663 118.009C189.364 119.674 187.165 119.529 187.357 117.157C187.778 111.931 191.606 104.375 191.913 98.7324Z" fill="#E6EDF6"/>
<path d="M191.913 98.7324C191.57 97.7188 192.803 97.5376 193.127 97.8574H193.121C193.307 98.0384 195.363 102.263 195.423 102.517C195.916 104.737 192.129 116.126 190.663 118.009C189.364 119.674 187.165 119.529 187.357 117.157C187.778 111.931 191.606 104.375 191.913 98.7324Z" stroke="black"/>
<path d="M189.589 206.71C191.909 202.986 193.34 205.618 195.173 207.465L195.167 207.471C199.729 212.075 204.915 215.419 203.347 222.781L189.589 206.71Z" fill="#E6EDF6"/>
<path d="M189.589 206.71C191.909 202.986 193.34 205.618 195.173 207.465L195.167 207.471C199.729 212.075 204.915 215.419 203.347 222.781L189.589 206.71Z" stroke="black"/>
<path d="M197.348 106.917C200.461 109.784 203.153 115.222 201.482 119.525V119.518C200.076 119.488 193.285 120.182 193.158 118.692L197.348 106.917Z" fill="#E6EDF6"/>
<path d="M197.348 106.917C200.461 109.784 203.153 115.222 201.482 119.525V119.518C200.076 119.488 193.285 120.182 193.158 118.692L197.348 106.917Z" stroke="black"/>
<path d="M246.626 123.814C247.001 125.231 246.252 124.828 245.855 125.19C243.325 127.459 240.2 129.064 236.708 129.251C235.392 129.318 235.962 129.209 235.824 128.346C235.626 127.127 235.116 124.496 236.113 123.814H246.626ZM246.626 123.814H246.631L246.625 123.808C246.626 123.81 246.625 123.812 246.626 123.814Z" fill="#E6EDF6"/>
<path d="M246.626 123.814C247.001 125.231 246.252 124.828 245.855 125.19C243.325 127.459 240.2 129.064 236.708 129.251C235.392 129.318 235.962 129.209 235.824 128.346C235.626 127.127 235.116 124.496 236.113 123.814H246.626ZM246.626 123.814H246.631L246.625 123.808C246.626 123.81 246.625 123.812 246.626 123.814Z" stroke="black"/>
<path d="M196.142 203.168C201.431 199.391 203.42 207.247 202.747 211.315C200.692 209.456 198.131 206.832 196.442 204.677C195.938 204.032 195.078 203.923 196.142 203.168Z" fill="#E6EDF6"/>
<path d="M196.142 203.168C201.431 199.391 203.42 207.247 202.747 211.315C200.692 209.456 198.131 206.832 196.442 204.677C195.938 204.032 195.078 203.923 196.142 203.168Z" stroke="black"/>
<path d="M190.132 121.394C191.172 122.359 187.182 127.338 185.637 127.423C184.483 127.158 183.942 121.991 184.128 120.79L190.132 121.394Z" fill="#E6EDF6"/>
<path d="M190.132 121.394C191.172 122.359 187.182 127.338 185.637 127.423C184.483 127.158 183.942 121.991 184.128 120.79L190.132 121.394Z" stroke="black"/>
<path d="M99.3669 150.362C97.8883 160.121 86.2221 170.386 76.2569 170.29C68.0827 170.211 58.7906 164.05 55.6592 156.53C55.1543 155.323 53.5916 150.399 53.7659 149.505C53.9703 148.473 55.6953 148.069 56.4045 149.143C56.9214 149.928 56.6028 151.708 56.9575 152.813C62.3909 169.62 81.4318 172.372 92.4609 158.817C93.1101 158.021 98.1708 148.992 99.3609 150.362H99.3669Z" fill="#132439"/>
<path d="M79.9747 119.722C88.804 117.9 91.4606 131.159 81.9701 131.991C73.6517 132.722 72.1251 121.346 79.9747 119.722ZM83.7372 122.607C80.5036 120.507 74.968 124.749 78.3278 127.423C78.5502 126.222 78.8026 124.593 79.8845 123.85C81.2188 122.933 83.2203 123.79 83.7372 122.601V122.607Z" fill="#132439"/>
<path d="M83.7406 122.606C83.2177 123.795 81.2223 122.932 79.888 123.855C78.8061 124.598 78.5537 126.227 78.3313 127.428C74.9775 124.748 80.507 120.512 83.7406 122.612V122.606Z" fill="#E6EDF6"/>
<path d="M142.674 274.639C142.674 272.447 142.374 270.834 141.775 269.803C141.175 268.728 139.977 268.191 138.178 268.191H137.536V266.256H155.197C159.607 266.256 163.589 267.137 167.143 268.9C170.739 270.619 172.538 274.059 172.538 279.217C172.538 282.571 171.596 285.172 169.712 287.02C167.871 288.869 165.794 290.094 163.482 290.696C161.17 291.298 159.051 291.599 157.124 291.599H151.023V308.816H142.674V274.639ZM154.876 289.019C157.402 289.019 159.479 288.245 161.106 286.698C162.733 285.15 163.546 282.549 163.546 278.895C163.546 275.284 162.733 272.704 161.106 271.157C159.522 269.609 157.552 268.835 155.197 268.835C153.956 268.835 152.992 268.921 152.307 269.093L151.023 269.287V289.019H154.876Z" fill="#E6EDF6"/>
<path d="M179.74 274.639C179.74 272.447 179.44 270.834 178.841 269.803C178.241 268.728 177.043 268.191 175.244 268.191H174.602V266.256H182.309C183.85 266.256 185.028 266.514 185.841 267.03C186.655 267.546 187.233 268.405 187.575 269.609C187.918 270.77 188.089 272.447 188.089 274.639V283.667H193.227C198.664 283.667 203.181 284.613 206.778 286.504C210.374 288.396 212.173 291.642 212.173 296.242C212.173 300.842 210.374 304.087 206.778 305.979C203.181 307.87 198.664 308.816 193.227 308.816H179.74V274.639ZM222.384 308.816C220.843 308.816 219.665 308.58 218.852 308.107C218.038 307.591 217.46 306.753 217.118 305.592C216.775 304.388 216.604 302.669 216.604 300.433V266.256H224.953V300.433C224.953 302.626 225.253 304.259 225.852 305.334C226.451 306.366 227.65 306.882 229.448 306.882H230.091V308.816H222.384ZM192.263 306.237C196.031 306.237 198.793 305.399 200.548 303.722C202.304 302.045 203.181 299.552 203.181 296.242C203.181 292.931 202.304 290.438 200.548 288.761C198.793 287.085 196.031 286.246 192.263 286.246C191.15 286.246 190.166 286.354 189.309 286.569L188.089 286.891V305.592C188.474 305.764 188.881 305.871 189.309 305.914C190.251 306.129 191.236 306.237 192.263 306.237Z" fill="#E6EDF6"/>
<path d="M237.127 274.639C237.127 272.447 236.827 270.834 236.227 269.803C235.628 268.728 234.429 268.191 232.631 268.191H231.989V266.256H260.183C263.822 266.256 265.641 267.976 265.641 271.415V276.896H263.715C263.715 274.188 263.03 272.232 261.66 271.028C260.332 269.781 258.342 269.158 255.687 269.158H245.476V284.312H251.256C256.864 284.312 261.424 285.193 264.935 286.956C268.446 288.675 270.201 291.878 270.201 296.564C270.201 301.25 268.446 304.474 264.935 306.237C261.424 307.956 256.864 308.816 251.256 308.816H237.127V274.639ZM250.292 306.237C254.146 306.237 256.929 305.485 258.641 303.98C260.354 302.432 261.21 299.96 261.21 296.564C261.21 293.168 260.354 290.717 258.641 289.213C256.929 287.665 254.146 286.891 250.292 286.891H249.971C248.687 286.891 247.616 286.999 246.76 287.214L245.476 287.536V305.592C245.947 305.764 246.375 305.871 246.76 305.914C247.702 306.129 248.772 306.237 249.971 306.237H250.292Z" fill="#E6EDF6"/>
<path d="M277.893 274.639C277.893 272.447 277.593 270.834 276.994 269.803C276.394 268.728 275.196 268.191 273.397 268.191H272.755V266.256H280.462C282.003 266.256 283.181 266.514 283.994 267.03C284.808 267.546 285.386 268.405 285.728 269.609C286.071 270.77 286.242 272.447 286.242 274.639V283.667H291.38C296.817 283.667 301.334 284.613 304.931 286.504C308.527 288.396 310.325 291.642 310.325 296.242C310.325 300.842 308.527 304.087 304.931 305.979C301.334 307.87 296.817 308.816 291.38 308.816H277.893V274.639ZM320.537 308.816C318.996 308.816 317.818 308.58 317.005 308.107C316.191 307.591 315.613 306.753 315.271 305.592C314.928 304.388 314.757 302.669 314.757 300.433V266.256H323.106V300.433C323.106 302.626 323.406 304.259 324.005 305.334C324.604 306.366 325.803 306.882 327.601 306.882H328.244V308.816H320.537ZM290.416 306.237C294.184 306.237 296.946 305.399 298.701 303.722C300.457 302.045 301.334 299.552 301.334 296.242C301.334 292.931 300.457 290.438 298.701 288.761C296.946 287.085 294.184 286.246 290.416 286.246C289.303 286.246 288.318 286.354 287.462 286.569L286.242 286.891V305.592C286.627 305.764 287.034 305.871 287.462 305.914C288.404 306.129 289.389 306.237 290.416 306.237Z" fill="#E6EDF6"/>
<path d="M99.3773 308.653C95.6364 308.653 92.5943 308.1 90.2511 306.992C87.949 305.884 85.8524 304.222 83.9614 302.006L85.688 300.221C87.3735 302.109 89.1617 303.525 91.0527 304.468C92.9849 305.412 94.8553 305.884 96.6641 305.884C99.2129 305.884 101.268 305.084 102.83 303.483C104.434 301.842 105.235 299.36 105.235 296.036C105.235 292.877 104.495 290.497 103.015 288.897C101.536 287.296 99.6445 286.496 97.3424 286.496C95.8214 286.496 94.2798 286.701 92.7177 287.112L90.8677 287.666L89.3878 285.327L106.222 269.571H95.1842C92.7176 269.571 90.8061 270.166 89.4495 271.356C88.134 272.504 87.4762 274.166 87.4762 276.341H85.6263V271.725C85.6263 268.442 87.3735 266.801 90.8677 266.801H111.71V269.571L96.3558 283.973C96.6436 283.932 97.1574 283.891 97.8974 283.85C98.6785 283.768 99.4801 283.727 100.302 283.727C102.399 283.727 104.475 284.158 106.53 285.019C108.627 285.84 110.374 287.173 111.772 289.02C113.169 290.866 113.868 293.205 113.868 296.036C113.868 299.196 113.046 301.719 111.402 303.607C109.757 305.494 107.825 306.807 105.605 307.546C103.427 308.284 101.351 308.653 99.3773 308.653Z" fill="#E6EDF6"/>
<path d="M64.97 309.143C61.6975 309.143 58.9494 308.576 56.7257 307.442C54.544 306.308 52.5091 304.608 50.6211 302.34L52.4462 300.702C53.9566 302.592 55.6978 303.999 57.6697 304.923C59.6416 305.847 61.5926 306.308 63.5226 306.308C66.1238 306.308 68.2216 305.469 69.8159 303.789C71.4103 302.067 72.2074 299.442 72.2074 295.914C72.2074 292.68 71.3473 290.266 69.6271 288.67C67.9069 287.032 65.4525 286.213 62.2639 286.213C60.5017 286.213 58.7605 286.465 57.0404 286.969C56.453 287.095 55.5719 287.326 54.3971 287.662L51.8798 285.205L52.572 266.306H77.0534V269.078H59.8724L59.306 283.63L61.194 283.504C63.3338 283.378 64.5295 283.315 64.7812 283.315C67.3405 283.315 69.8369 283.714 72.2704 284.512C74.7458 285.268 76.8226 286.591 78.5008 288.481C80.1791 290.371 81.0182 292.848 81.0182 295.914C81.0182 299.19 80.1581 301.815 78.4379 303.789C76.7177 305.763 74.6199 307.148 72.1445 307.946C69.7111 308.744 67.3196 309.143 64.97 309.143Z" fill="#E6EDF6"/>
<path d="M36.4972 309.143V273.965L30.6566 277.6L29.0454 275.588L39.3839 266.306H45.2245V309.143H36.4972Z" fill="#E6EDF6"/>
</symbol>
</svg>
