<svg style="width:0; height:0; visibility: hidden;" xmlns="http://www.w3.org/2000/svg">
	
	<symbol id="svg-cross" viewBox="0 0 26 26">
		<g>
		
			<path d="M1.66679 25.4665C1.51783 25.467 1.37023 25.438 1.23252 25.3812C1.0948 25.3244 0.969689 25.241 0.864395 25.1356C0.653436 24.9218 0.535156 24.6335 0.535156 24.3332C0.535156 24.0328 0.653436 23.7446 0.864395 23.5308L23.5311 0.864103C23.7439 0.651294 24.0325 0.531738 24.3335 0.531738C24.6344 0.531738 24.9231 0.651294 25.1359 0.864103C25.3487 1.07691 25.4682 1.36554 25.4682 1.6665C25.4682 1.96746 25.3487 2.25609 25.1359 2.4689L2.46919 25.1356C2.3639 25.241 2.23879 25.3244 2.10107 25.3812C1.96336 25.438 1.81576 25.467 1.66679 25.4665V25.4665Z" fill="currentColor" />
			<path d="M24.3334 25.4665C24.1844 25.467 24.0369 25.438 23.8991 25.3812C23.7614 25.3244 23.6363 25.241 23.531 25.1356L0.864347 2.4689C0.651538 2.25609 0.531982 1.96746 0.531982 1.6665C0.531982 1.36554 0.651538 1.07691 0.864347 0.864103C1.07716 0.651294 1.36579 0.531738 1.66675 0.531738C1.96771 0.531738 2.25634 0.651294 2.46915 0.864103L25.1358 23.5308C25.3468 23.7446 25.4651 24.0328 25.4651 24.3332C25.4651 24.6335 25.3468 24.9218 25.1358 25.1356C25.0305 25.241 24.9054 25.3244 24.7677 25.3812C24.63 25.438 24.4824 25.467 24.3334 25.4665V25.4665Z" fill="currentColor" />

		</g>
	</symbol>
	<symbol id="svg-cart" viewBox="0 0 26 22">
		<g>
			<path d="M16.6 9.81229L15.4 20.4995M21.4 9.81229L16.6 1.5M1 9.81229H25M2.8 9.81229L4.72 18.5996C4.8322 19.1441 5.13382 19.6324 5.57234 19.9796C6.01087 20.3267 6.55853 20.5107 7.12 20.4995H18.88C19.4415 20.5107 19.9891 20.3267 20.4277 19.9796C20.8662 19.6324 21.1678 19.1441 21.28 18.5996L23.32 9.81229M4 15.1559H22M4.6 9.81229L9.4 1.5M9.4 9.81229L10.6 20.4995" stroke="currentColor" stroke-width="2" stroke-linecap="round" stroke-linejoin="round"/>

		</g>
	</symbol>
	
	
	<symbol id="svg-star"  viewBox="0 0 32 32">
		<g>

  			
		</g>
	</symbol>
	<symbol id="svg-cart"  viewBox="0 0 32 32">
		<g>

  			
		</g>
	</symbol>
	
</svg>
